<?xml version="1.0" standalone="no"?>
<!DOCTYPE svg PUBLIC "-//W3C//DTD SVG 1.1//EN" "http://www.w3.org/Graphics/SVG/1.1/DTD/svg11.dtd" >
<svg xmlns="http://www.w3.org/2000/svg">
<metadata>
This is a custom SVG webfont generated by Font Squirrel.
Copyright   :  1989 1992 1994 1996 1998 1999 2000 2001 Adobe Systems Incorporated All rights reserved
Designer    : Robert Slimbach
Foundry     : Adobe Systems Incorporated
Foundry URL : httpwwwadobecomtype
</metadata>
<defs>
<font id="AdobeGaramondProItalic" horiz-adv-x="1024" >
<font-face units-per-em="2048" ascent="1485" descent="-563" />
<missing-glyph horiz-adv-x="512" />
<glyph unicode=" "  horiz-adv-x="512" />
<glyph unicode="&#x09;" horiz-adv-x="512" />
<glyph unicode="&#xa0;" horiz-adv-x="512" />
<glyph unicode="!" horiz-adv-x="421" d="M57 68q0 53 36 90t81 37q43 0 66.5 -28t23.5 -65q0 -59 -34.5 -95t-82.5 -36q-43 0 -66.5 26t-23.5 71zM223 420l142 661q29 139 41 179q12 41 33.5 52t74.5 11q57 0 75.5 -17.5t8.5 -48.5q-4 -10 -11 -28.5t-23.5 -60.5t-33.5 -83l-254 -665q-6 -12 -24.5 -12t-28.5 12z " />
<glyph unicode="&#x22;" horiz-adv-x="778" d="M422 946l37 330q10 88 25.5 108.5t80.5 20.5q43 0 56.5 -12.5t9.5 -37t-27 -79.5l-135 -330q-4 -12 -22.5 -12t-24.5 12zM745 946l37 330q10 88 25.5 108.5t81.5 20.5q43 0 56 -12.5t9 -37t-26 -79.5l-135 -330q-4 -12 -23 -12t-25 12z" />
<glyph unicode="#" d="M104 397l43 99h218l135 331h-224l48 99h217l143 352h96l-145 -352h231l142 352h98l-145 -352h204l-41 -99h-204l-140 -331h201l-43 -99h-195l-161 -391h-88l157 391h-233l-162 -391h-86l158 391h-224zM455 496h233l137 331h-231z" />
<glyph unicode="$" d="M90 119q-31 78 10 262q6 8 21.5 8t25.5 -6q0 -57 23 -118.5t84 -120t152 -74.5l165 565q-221 125 -221 305q0 164 120 263.5t298 105.5l47 159q14 10 39 10.5t39 -10.5l-47 -161q135 -12 248 -70q6 -82 -33 -221q-4 -8 -22.5 -10t-24.5 4q6 74 -37 146.5t-152 88.5 l-143 -495q80 -49 128 -90.5t87 -109t39 -151.5q0 -188 -137 -293.5t-336 -105.5l-57 -193q-12 -12 -41 -12t-37 12l57 197q-195 21 -295 115zM483 61q137 2 220 76t83 191q0 170 -149 264zM487 1001q0 -127 129 -210l134 456q-106 -4 -184.5 -72t-78.5 -174z" />
<glyph unicode="%" horiz-adv-x="1767" d="M274 788q0 197 123 360t297 163q111 0 171.5 -75t60.5 -202q0 -188 -124 -353t-282 -165q-121 0 -183.5 73.5t-62.5 198.5zM381 -29q561 666 1141 1368q20 0 39.5 -14t19.5 -37q-514 -608 -1145 -1370q-55 0 -55 53zM410 731q0 -154 104 -153q63 0 118.5 62t88.5 150.5 t51.5 173.5t18.5 140q0 68 -27 106.5t-74 38.5q-82 0 -150.5 -103.5t-99 -220t-30.5 -194.5zM1063 248q0 197 123 359.5t297 162.5q111 0 171 -74.5t60 -201.5q0 -188 -124 -353.5t-281 -165.5q-121 0 -183.5 74t-62.5 199zM1198 190q0 -154 105 -153q63 0 118.5 62.5 t88 150.5t51 173t18.5 140q0 68 -26.5 107t-73.5 39q-82 0 -150.5 -103.5t-99.5 -220.5t-31 -195z" />
<glyph unicode="&#x26;" horiz-adv-x="1576" d="M162 381q0 240 196 440q154 160 306 160q23 0 40 -4t28 -10t22.5 -16.5t15.5 -16.5l12 -19q8 -12 11 -14q68 55 156.5 145.5t131.5 147.5q74 94 74 172q0 37 -25 61q-23 23 -22 46q0 39 24.5 61t57.5 22q39 0 66.5 -26.5t27.5 -81.5q0 -168 -258 -420 q-119 -117 -333 -283.5t-394 -289.5v-17q0 -178 110.5 -264t252.5 -86q135 0 273 88t224 246q57 106 82 196.5t29 217.5q-39 35 -107 34q-51 0 -100 -41t-49 -90q0 -8 16 -67q14 -53 14 -58q0 -10 -4 -21t-20 -23.5t-43 -12.5q-35 0 -61.5 21.5t-26.5 60.5q0 115 139 229 q102 84 203 84q27 0 53.5 -7t42.5 -13t46 -27.5t39 -29t46 -41t45 -41.5q6 -4 14.5 -12.5t12.5 -11.5t10 -9t8 -7t7.5 -5.5t8.5 -4.5t8 -2t10 -2h11q16 0 28.5 19.5t12.5 44.5q0 27 -8 51q-8 29 -8 31q0 18 19.5 34.5t45.5 16.5q39 0 57.5 -35t18.5 -80q0 -57 -39 -96 q-10 -12 -53 -20q-86 -10 -154 -52q-29 -18 -49 13q-10 16 -54 63t-87 82q0 -96 -8 -174q-8 -76 -57.5 -201t-151.5 -241q-100 -113 -235.5 -168.5t-256.5 -55.5q-227 0 -339.5 118t-112.5 292zM303 532q231 160 334 250q2 18 2 49q0 29 -19.5 46.5t-48.5 17.5 q-27 0 -71.5 -28.5t-85.5 -82.5q-88 -117 -111 -252z" />
<glyph unicode="'" horiz-adv-x="425" d="M412 946l37 330q10 88 25 108.5t81 20.5q43 0 56.5 -12.5t9 -37t-26.5 -79.5l-135 -330q-4 -12 -22.5 -12t-24.5 12z" />
<glyph unicode="(" horiz-adv-x="655" d="M184 305q0 492 402 893q139 141 332 242q27 0 26 -29q-219 -152 -350 -334q-299 -418 -299 -790q0 -381 131 -598q0 -27 -33 -23q-209 217 -209 639z" />
<glyph unicode=")" horiz-adv-x="655" d="M-137 -305q219 152 350 334q299 418 299 790q0 381 -131 598q0 27 33 23q209 -217 209 -639q0 -492 -402 -893q-139 -141 -332 -242q-26 0 -26 29z" />
<glyph unicode="*" horiz-adv-x="819" d="M283 927.5q-4 16.5 4 28.5l262 107l-193 213q-2 14 9.5 25.5t25.5 9.5l219 -183l82 254q27 12 49 -10l-41 -264l279 68q14 -4 18 -19.5t-4 -28.5l-266 -106l191 -211q2 -14 -8.5 -27.5t-24.5 -11.5l-217 189l-80 -256q-33 -14 -49 12l39 264l-279 -74q-12 4 -16 20.5z " />
<glyph unicode="+" horiz-adv-x="1146" d="M242 371v100h333v336h121v-336h334v-100h-334v-371h-121v371h-333z" />
<glyph unicode="," horiz-adv-x="512" d="M4 -176q188 86 189 213q0 63 -68 80q-31 8 -31 45q0 33 25.5 55.5t62.5 22.5q68 0 107 -49.5t39 -112.5q0 -102 -95.5 -181t-214.5 -114q-26 12 -14 41z" />
<glyph unicode="-" horiz-adv-x="655" d="M111.5 414q5.5 39 25.5 57l498 45q16 -20 10 -59t-27 -58l-497 -45q-15 21 -9.5 60z" />
<glyph unicode="." horiz-adv-x="512" d="M94 68q0 53 36 90t81 37q43 0 66.5 -28t23.5 -65q0 -59 -35 -95t-82 -36q-43 0 -66.5 26t-23.5 71z" />
<glyph unicode="/" horiz-adv-x="512" d="M-14 -33l626 1417h119l-627 -1417h-118z" />
<glyph unicode="0" d="M152 367q0 188 74.5 388.5t195.5 344.5q178 211 379 211q293 0 293 -393q0 -178 -77 -387t-198 -355q-168 -205 -362 -205q-90 0 -154.5 37t-95.5 99.5t-43 125t-12 134.5zM309 250q0 -217 156 -217q180 0 342 430q129 348 129 557q0 229 -141 229q-66 0 -134.5 -59.5 t-128.5 -161.5q-92 -162 -157.5 -386t-65.5 -392z" />
<glyph unicode="1" d="M186 21.5q0 19.5 13 23.5l51 6q94 12 127 49t69 162l205 690q35 121 29 156t-66 41l-94 10q-8 8 -7 22.5t11 18.5q227 39 365 111q20 2 26 -11q-53 -141 -86 -247l-241 -805q-35 -123 -21.5 -155t95.5 -42l53 -6q10 -8 9 -26.5t-11 -24.5q-156 6 -264 6q-113 0 -250 -6 q-13 8 -13 27.5z" />
<glyph unicode="2" d="M-18 16q0 6 2 11q205 137 419 317q4 4 63.5 52t75 61.5t70 61.5t75 71.5t63.5 70t61 79t43 74.5t34 83t9 80q0 113 -60.5 175t-156.5 62q-168 0 -307 -188q-16 -8 -30.5 1t-12.5 30q68 117 181.5 185.5t231.5 68.5q158 0 245 -82t87 -223q0 -133 -93 -250t-249 -238 l-174 -135q-274 -213 -274 -242q0 -18 69 -18h240q135 0 177 17.5t108 105.5q29 10 43 -13q-20 -63 -56.5 -136.5t-60.5 -102.5q-102 4 -152 4q-49 2 -149 2h-295q-160 0 -215 -6q-12 6 -12 22z" />
<glyph unicode="3" d="M-10 6q0 35 23.5 59.5t62.5 24.5q23 0 44 -15.5t25.5 -21.5t26.5 -39q37 -55 117 -55q131 0 266 88q111 72 170 181.5t59 238.5q0 102 -59 164.5t-168 62.5q-121 0 -242 -104q-25 4 -34 30.5t8 49.5q252 100 366 168q188 113 189 237q0 78 -45 116t-111 38 q-150 0 -305 -180q-18 -2 -28.5 7t-8.5 27q63 98 167.5 163t236.5 65q127 0 194.5 -59.5t67.5 -157.5q0 -156 -295 -283q-23 -10 -16.5 -23.5t32.5 -17.5q96 -18 164 -92t68 -189q0 -135 -90.5 -262t-210.5 -202q-225 -139 -469 -140q-92 0 -148.5 33t-56.5 88z" />
<glyph unicode="4" d="M74 422q0 18 59 78l930 919q27 27 51 27h39q27 0 27 -16q0 -6 -17 -23l-921 -899q-33 -33 12 -37q12 -2 37 -2h321q37 0 50.5 9t23.5 44l113 381q8 31 28 41q66 35 113 35q10 0 14 -4t4 -13.5t-2 -18.5t-8 -28l-117 -393q-10 -29 -3.5 -41t30.5 -12h129q8 -18 0 -43 t-24 -35h-109q-39 0 -52.5 -8t-23.5 -41l-39 -125q-20 -68 -24 -97.5t9 -46t54 -22.5l51 -6q10 -8 7.5 -27.5t-13.5 -23.5q-123 6 -221 6q-115 0 -242 -6q-12 4 -11 24.5t13 26.5l82 6q72 6 97.5 37t54.5 129l35 119q10 41 4 48t-47 7h-494q-20 0 -20 31z" />
<glyph unicode="5" d="M21.5 -108.5q-3.5 24.5 13.5 38.5q336 2 541.5 156t205.5 367q0 100 -37.5 170.5t-108.5 105.5t-147.5 50.5t-175.5 15.5q-37 0 -8 63l168 356q20 45 90 56l514 69q14 -2 23 -18q-33 -80 -88 -121l-422 -57q-49 -6 -67.5 -15.5t-30.5 -37.5l-58 -129q-8 -18 -8 -27.5 t5 -12.5t20 -6l55 -8q86 -12 152.5 -33.5t136 -64.5t107.5 -121t38 -184q0 -174 -122 -319.5t-294 -219.5q-213 -92 -479 -104q-20 6 -23.5 30.5z" />
<glyph unicode="6" d="M139 371q0 211 124 426t302 346q317 236 721 276q12 -2 13 -20.5t-9 -24.5q-113 -29 -168 -45t-166.5 -65.5t-203.5 -116.5q-203 -150 -322 -378t-119 -439q0 -297 224 -297q133 0 214.5 135t81.5 289q0 106 -50 168.5t-136 62.5q-59 0 -106 -18q-18 25 -7 37 q33 27 87.5 45t91.5 18q135 0 216 -85t81 -255q0 -174 -143.5 -316.5t-346.5 -142.5q-184 0 -281.5 107t-97.5 293z" />
<glyph unicode="7" d="M123 -88l868 1167q33 49 25 64.5t-55 15.5h-392q-111 0 -144.5 -15.5t-86.5 -78.5q-8 -8 -24.5 -2t-20.5 16q66 98 106 209q61 -4 88 -4q33 -2 127 -2h347q250 0 276 6q18 -6 14 -24q-111 -102 -284 -340l-781 -1055q-25 -4 -45 10.5t-18 32.5z" />
<glyph unicode="8" d="M113 281q0 55 18.5 104t43 83t70.5 69.5t78.5 55t91 51.5t85.5 48q-72 47 -115 114.5t-43 137.5q0 152 115.5 259.5t275.5 107.5q150 0 239 -86t89 -215q0 -57 -24.5 -103.5t-78 -87.5t-96.5 -65.5t-119 -61.5q203 -143 203 -325q0 -178 -134 -287t-316 -109 q-166 0 -274.5 83.5t-108.5 226.5zM268 287q0 -125 69 -189.5t167 -64.5q115 0 197.5 76.5t82.5 218.5q0 184 -229 319q-139 -82 -213 -164.5t-74 -195.5zM485 997q0 -82 50.5 -140t152.5 -124q104 63 165.5 133t61.5 166t-51 156.5t-141 60.5q-96 0 -167 -69.5t-71 -182.5z " />
<glyph unicode="9" d="M9 -101.5q-3 17.5 5 25.5q440 113 676 412q113 143 181.5 327.5t68.5 329.5q0 111 -47 183.5t-148 72.5q-129 0 -219 -119.5t-90 -271.5q0 -100 42 -167.5t136 -67.5q41 0 78 8q25 -12 8 -39q-70 -49 -163 -49q-121 0 -198 82t-77 213q0 172 143.5 322.5t344.5 150.5 q182 0 269 -106.5t87 -280.5q0 -231 -176 -498q-156 -229 -389.5 -367.5t-515.5 -181.5q-13 4 -16 21.5z" />
<glyph unicode=":" horiz-adv-x="512" d="M94 68q0 53 36 90t81 37q43 0 66.5 -28t23.5 -65q0 -59 -35 -95t-82 -36q-43 0 -66.5 26t-23.5 71zM274 680q0 53 36 90t81 37q43 0 66.5 -27.5t23.5 -64.5q0 -59 -34.5 -95t-81.5 -36q-43 0 -67 25.5t-24 70.5z" />
<glyph unicode=";" horiz-adv-x="512" d="M4 -176q188 86 189 213q0 63 -68 80q-31 8 -31 45q0 33 25.5 55.5t62.5 22.5q68 0 107 -49.5t39 -112.5q0 -102 -95.5 -181t-214.5 -114q-26 12 -14 41zM274 680q0 53 36 90t81 37q43 0 66.5 -27.5t23.5 -64.5q0 -59 -34.5 -95t-81.5 -36q-43 0 -67 25.5t-24 70.5z" />
<glyph unicode="&#x3c;" horiz-adv-x="1146" d="M242 373v92l796 379v-119l-649 -303v-4l649 -305v-117z" />
<glyph unicode="=" horiz-adv-x="1146" d="M242 217v100h788v-100h-788zM242 524v101h788v-101h-788z" />
<glyph unicode="&#x3e;" horiz-adv-x="1146" d="M242 -4v117l649 305v4l-649 303v119l796 -379v-92z" />
<glyph unicode="?" horiz-adv-x="614" d="M135 68q0 53 36 90t81 37q43 0 66.5 -28t23.5 -65q0 -59 -35 -95t-82 -36q-43 0 -66.5 26t-23.5 71zM223 633q25 92 160 166l127 71q84 47 125 89t41 98q0 66 -43 105.5t-101 39.5q-47 0 -92 -22l-45 -23q-14 0 -26.5 15.5t-12.5 41.5q0 43 42 76t106 33q90 0 164.5 -90 t74.5 -201q0 -182 -211 -299l-137 -76q-94 -53 -94 -133q0 -47 18 -98q-12 -23 -32 -10q-91 117 -64 217z" />
<glyph unicode="@" horiz-adv-x="1576" d="M225 313q0 348 240 566.5t569 218.5q281 0 442.5 -157t161.5 -376q0 -205 -145 -349t-385 -144q-147 0 -147 45q0 20 16 63l51 129l-4 2q-92 -96 -208 -167.5t-179 -71.5q-41 0 -62.5 26.5t-21.5 65.5q0 41 38 130t118 185q211 258 409 258q23 0 45.5 -12t30.5 -33 l51 105q23 8 53.5 -0.5t44.5 -24.5q-203 -465 -239 -567q-14 -35 -3 -51.5t50 -14.5q170 6 284.5 119t114.5 299q0 213 -151.5 342t-382.5 129q-293 0 -471 -209t-178 -504q0 -98 30.5 -191t97 -179t190.5 -139.5t292 -53.5q150 0 317 72q27 -12 17 -39q-166 -104 -396 -104 q-131 0 -250.5 38.5t-220 114.5t-160 199.5t-59.5 279.5zM715 193q0 -27 24 -27q45 0 164 106q70 61 146.5 170t97.5 164q-20 59 -88 60q-53 0 -129 -62q-84 -68 -149.5 -196.5t-65.5 -214.5z" />
<glyph unicode="A" horiz-adv-x="1220" d="M-111 -6q-9 12 -9 24q0 14 14 27l55 6q82 8 147 86q74 90 338 461l361 508q109 152 123 211q31 4 66.5 21.5t59.5 31.5l23 14q25 0 25 -16q0 -14 -3.5 -50t-8.5 -105.5t-9 -145.5l-41 -774q-4 -68 -5 -97.5t2 -62.5t6 -42t19.5 -20.5t31 -13.5t46.5 -6l54 -6q6 -7 6 -19 q0 -24 -14 -32q-94 6 -232 6q-143 0 -235 -6q-14 6 -15.5 25.5t13.5 25.5l63 6q61 6 80 33q16 27 22 127l19 274q4 35 -3 44.5t-40 9.5h-295q-47 0 -62.5 -9.5t-44.5 -54.5l-159 -233q-92 -145 -92 -154q0 -23 47 -31l88 -12q12 -10 10 -27.5t-14 -23.5q-96 6 -209 6 q-117 0 -228 -6zM560 627q7 -6 40 -6h258q27 0 33 7t8 34l33 448q1 18 1 30q0 24 -5 23q-10 0 -78 -100l-285 -412q-8 -12 -8 -18q0 -4 3 -6z" />
<glyph unicode="B" horiz-adv-x="1189" d="M39 19.5q0 17.5 10 25.5l41 6q76 10 106.5 50t77.5 194l248 805q26 88 26 127q0 14 -3 22q-12 31 -84 33l-68 2q-10 8 -9 24.5t9 24.5q176 25 344 25q213 0 332 -49q174 -74 174 -258q0 -139 -106.5 -221t-212.5 -91q-14 0 -18.5 -5t1.5 -9t17 -8q92 -31 152.5 -113 t60.5 -188q0 -158 -111 -266q-156 -156 -491 -156q-59 0 -145.5 3t-127.5 3q-123 0 -211 -6q-12 8 -12 25.5zM410 236q-13 -43 -14 -75q0 -41 23 -64q40 -40 154 -40q150 0 269 96.5t119 286.5q0 123 -89.5 190.5t-214.5 67.5q-76 0 -94 -10t-33 -59zM590 771q12 -11 76 -11 q61 0 126.5 16.5t132 51t108.5 102t42 160t-67.5 148.5t-190.5 56q-59 0 -72.5 -8t-27.5 -57l-127 -410q-6 -18 -6 -30t6 -18z" />
<glyph unicode="C" horiz-adv-x="1323" d="M209 518q0 172 81 335t212 281.5t310 184t378 65.5q172 0 336 -65q-61 -152 -92 -275q-6 -12 -29 -11t-27 14q12 53 12 95q0 69 -31 111q-50 68 -204 68q-291 0 -524 -229q-92 -92 -167 -260t-75 -353q0 -219 101.5 -333.5t295.5 -114.5q266 0 441 286q39 16 49 -14 q-41 -125 -133 -289q-27 0 -162 -22q-143 -25 -199 -25q-109 0 -204 26.5t-181 86t-137 172t-51 266.5z" />
<glyph unicode="D" horiz-adv-x="1513" d="M29 19.5q0 17.5 10 25.5l53 6q72 8 102.5 49t77.5 195l256 829q21 76 21 108q0 9 -1 14q-7 26 -54 32l-82 10q-10 6 -10.5 23.5t10.5 25.5q154 20 381 21q170 0 302 -34t213 -88t132 -129t70.5 -149.5t19.5 -158.5q0 -195 -87 -356.5t-237 -264.5q-270 -184 -684 -184 q-23 0 -105.5 3t-150.5 3q-119 0 -225 -6q-12 8 -12 25.5zM406 233q-12 -38 -12 -66q0 -41 24 -64q41 -38 174 -37q168 0 304 54t218 135t137.5 181.5t76 187.5t20.5 160.5t-6.5 130t-38 132t-86 126t-160 86t-250.5 35.5q-47 0 -63.5 -14t-32.5 -66z" />
<glyph unicode="E" horiz-adv-x="1159" d="M4 19.5q0 17.5 10 25.5l72 6q74 6 104.5 47t79.5 197l238 762q42 127 42 173q0 6 -1 11q-6 41 -86 57l-41 9q-10 12 -7 28.5t19 22.5q74 -4 109 -4q37 -2 119 -2h387q227 0 288 6q-25 -61 -84 -273q-6 -12 -26.5 -11t-24.5 13q8 42 8 75q0 28 -6 47q-12 44 -74 61 q-70 18 -217 18h-120q-39 0 -52.5 -11t-27.5 -58l-131 -420q-14 -43 -10.5 -51.5t46.5 -8.5h103q147 0 197.5 17.5t85.5 83.5l32 61q6 10 27.5 9t23.5 -13q-39 -92 -69 -199q-29 -92 -53 -198q-10 -12 -27.5 -11.5t-24.5 13.5v57q0 76 -39.5 92.5t-171.5 16.5h-102 q-43 0 -54 -8.5t-26 -51.5l-84 -276q-31 -102 -38 -141q-3 -16 -3 -32q0 -25 6 -53q20 -43 228 -43q182 0 263 35t173 178q33 20 47 -12q-16 -55 -60 -144t-81 -126q-35 2 -112 3t-116 1q-41 0 -121.5 1t-119.5 1h-242q-109 0 -244 -6q-12 8 -12 25.5z" />
<glyph unicode="F" horiz-adv-x="1091" d="M14 19.5q0 17.5 11 25.5l63 6q74 8 104.5 48t79.5 196l240 762q42 127 42 172q0 6 -1 11q-6 40 -88 58l-37 9q-10 12 -7 28.5t19 22.5q18 -2 52 -3t53 -1q16 0 55 -1t62 -1h380q229 0 289 6q-25 -61 -84 -273q-6 -12 -26.5 -11t-24.5 13q8 42 8 75q0 28 -6 47 q-12 44 -74 61q-72 18 -217 18h-112q-41 0 -51.5 -10t-26.5 -59l-142 -449q-10 -33 -5 -42t38 -9h142q145 0 195 17.5t85 82.5l35 64q8 10 29.5 8t23.5 -12q-39 -100 -69 -195q-41 -125 -54 -205q-10 -10 -26.5 -10t-26.5 10l2 78q2 51 -42 70.5t-169 19.5h-151 q-33 0 -43.5 -9t-22.5 -48l-90 -295q-16 -55 -24.5 -85t-13.5 -60.5t-3 -45t11.5 -28t25.5 -18.5t43 -7l80 -6q8 -10 5 -27.5t-13 -23.5q-178 6 -279 6q-111 0 -231 -6q-13 8 -13 25.5z" />
<glyph unicode="G" horiz-adv-x="1439" d="M207 500q0 162 72.5 329.5t222.5 298.5q293 256 712 256q199 0 351 -65q-57 -123 -97 -272q-6 -12 -26.5 -11.5t-24.5 13.5q10 49 10 88q0 75 -35 118q-54 66 -202 66q-303 0 -537 -219q-113 -104 -189.5 -288.5t-76.5 -356.5q0 -225 115.5 -325.5t290.5 -100.5 q117 0 177 29.5t91 123.5l53 168q30 87 30 128q0 12 -2 20q-11 35 -102 47l-79 10q-10 8 -9.5 26.5t13.5 24.5q135 -6 245 -6q160 0 234 6q10 -6 10 -24.5t-12 -26.5l-35 -10q-59 -16 -78.5 -45t-58.5 -150l-64 -202q-5 -14 -4 -25q0 -24 21 -37q4 -16 -9 -29 q-264 -92 -430 -92q-272 0 -424.5 141.5t-152.5 391.5z" />
<glyph unicode="H" horiz-adv-x="1558" d="M31 18.5q0 16.5 10 26.5l47 6q74 10 104.5 49t79.5 195l240 762q27 82 36 118q6 25 6 47q0 10 -1 19q-4 31 -23.5 40t-64.5 17l-49 9q-10 15 -10 26q0 17 22 25q123 -6 238 -6q109 0 237 6q12 -6 12 -22.5t-12 -28.5l-47 -9q-86 -14 -112.5 -50t-77.5 -191l-84 -264 q-12 -35 -4 -42.5t63 -7.5h541q70 0 84 6.5t24 38.5l84 269q27 84 35 119q6 25 6 48q0 9 -1 17q-3 31 -22.5 40t-62.5 17l-51 9q-8 10 -5 27.5t17 23.5q127 -6 240 -6q102 0 237 6q12 -6 12.5 -23.5t-12.5 -27.5l-49 -9q-86 -14 -113.5 -51t-76.5 -190l-238 -762 q-42 -129 -42 -180q0 -55 81 -64l55 -6q20 -35 -8 -51q-143 6 -250 6q-111 0 -237 -6q-12 8 -12 24.5t10 26.5l65 6q74 6 104.5 47t80.5 197l98 311q12 41 2 48.5t-76 7.5h-557q-47 0 -56 -7.5t-22 -42.5l-100 -317q-42 -129 -43 -180q0 -55 82 -64l63 -6q8 -12 5 -28.5 t-13 -22.5q-152 6 -258 6q-121 0 -219 -6q-12 8 -12 24.5z" />
<glyph unicode="I" horiz-adv-x="698" d="M14 19.5q0 17.5 11 25.5l63 6q74 8 104.5 48t79.5 196l240 762q27 82 36 118q6 25 6 47q0 10 -1 19q-4 31 -23.5 40t-64.5 17l-49 9q-10 12 -7 28.5t19 22.5q123 -6 238 -6q98 0 245 6q12 -6 12.5 -24.5t-12.5 -26.5l-55 -9q-86 -14 -113.5 -50t-76.5 -191l-240 -762 q-42 -129 -43 -180q0 -55 82 -64l63 -6q8 -10 5 -27.5t-13 -23.5q-152 6 -258 6q-113 0 -235 -6q-13 8 -13 25.5z" />
<glyph unicode="J" horiz-adv-x="696" d="M-238 -352q0 27 25 57.5t55 30.5q27 0 76 -29q53 -31 98 -31q66 0 134 179q47 117 135 401l247 801q33 106 39 148q2 11 2 21q0 27 -13 43q-17 22 -75 31l-51 9q-10 12 -7 27.5t19 21.5q127 -6 240 -6q106 0 229 6q12 -6 12.5 -23.5t-12.5 -25.5l-55 -9 q-74 -10 -99.5 -48t-74.5 -195l-291 -936q-57 -182 -129 -305q-135 -227 -375 -228q-129 1 -129 60z" />
<glyph unicode="K" horiz-adv-x="1275" d="M14 19.5q0 17.5 11 25.5l63 6q74 8 104.5 48t79.5 196l240 762q27 82 36 118q8 29 7 55v11q-2 31 -20.5 40t-57.5 17l-47 9q-10 12 -7 28.5t19 22.5q98 -6 222 -6q106 0 243 6q12 -6 11.5 -24.5t-17.5 -26.5l-41 -9q-90 -18 -117.5 -53t-76.5 -188l-86 -271 q-12 -33 -5 -45t41 -12q47 0 89 21q70 41 215 178l204 194q133 129 133 152q0 12 -49 24l-39 9q-10 8 -8 27.5t17 23.5q100 -6 225 -6q43 0 221 6q13 -8 13 -24q0 -20 -15 -27l-43 -9q-82 -14 -137 -36q-119 -49 -363 -275l-262 -239q-27 -25 -30 -34t14 -44l225 -451 q45 -90 81 -125t105 -43l54 -6q10 -10 8 -28.5t-14 -22.5q-98 6 -218 6q-115 0 -231 -6q-18 39 6 51l53 6q35 4 45.5 15.5t4 30t-28.5 65.5l-215 422q-47 92 -82 92q-49 0 -68 -58l-100 -323q-42 -129 -43 -180q0 -55 82 -64l57 -6q8 -10 5 -27.5t-13 -23.5q-141 6 -254 6 q-111 0 -233 -6q-13 8 -13 25.5z" />
<glyph unicode="L" horiz-adv-x="1118" d="M27 19.5q0 17.5 10 25.5l49 6q74 10 104.5 49t79.5 195l240 762q27 82 36 118q6 25 6 47q0 10 -1 19q-4 31 -23.5 40t-64.5 17l-49 9q-10 12 -7 28.5t19 22.5q27 0 73 -2t85 -3t75 -1q49 0 134.5 3t124.5 3q12 -6 12 -24.5t-12 -26.5l-64 -9q-86 -10 -113.5 -47 t-76.5 -194l-226 -725q-44 -120 -44 -180q0 -24 7 -38q25 -50 203 -51q193 0 277 35t172 178q39 12 45 -12q-16 -51 -59.5 -139t-71.5 -131q-152 4 -240 4q-82 2 -233 2h-238q-119 0 -217 -6q-12 8 -12 25.5z" />
<glyph unicode="M" horiz-adv-x="1789" d="M-27 45l56 6q82 8 116 55q41 51 248 588l107 277q86 221 86 274q0 39 -58 47l-96 15q-10 8 -7 26.5t17 24.5q143 -6 226 -6q74 0 137 6q-14 -47 -14 -113.5t5 -120t19 -166.5l33 -264q23 -172 45 -375h4q31 37 236 302l325 419q172 221 199 318q51 -6 127 -6q113 0 207 6 q9 -7 9 -22v-3q-1 -16 -9 -26l-47 -9q-94 -16 -123 -47q-33 -37 -95 -254l-178 -635q-55 -197 -59 -256v-4q0 -45 82 -51l69 -6q10 -10 7.5 -27.5t-15.5 -23.5q-113 6 -262 6q-133 0 -248 -6q-10 10 -10 27.5t10 23.5l54 6q82 10 112 39q37 37 105 260l163 537 q59 190 78 258l-6 2q-8 -10 -67.5 -88t-122.5 -162l-312 -403q-240 -313 -327 -461q-20 -14 -39 8q2 82 -33 418l-70 688h-4q-29 -63 -94 -244l-153 -414q-123 -330 -123 -383q0 -37 61 -47l88 -14q6 -10 4 -26.5t-10 -24.5q-86 6 -236 6q-121 0 -219 -6q-9 7 -9 24 q0 22 11 27z" />
<glyph unicode="N" horiz-adv-x="1513" d="M2 22q0 13 8 23l51 6q63 6 101 35q47 35 155 391l162 524q68 217 68 244q0 35 -53 45l-82 17q-12 10 -9 28.5t19 22.5q16 -2 48 -3t48 -1q14 0 52 -1t61 -1h127v-29q0 -47 100 -297l207 -510q84 -201 100 -231q16 0 35 57l162 514q98 311 98 379q0 31 -9 42t-42 17 l-80 13q-8 14 -4 29.5t16 21.5q109 -6 232 -6q106 0 194 6q8 -6 10 -24v-4q0 -15 -8 -23l-47 -9q-84 -14 -106 -36q-53 -53 -168 -412l-148 -459q-70 -215 -129 -422q-13 -13 -36 -13q-6 0 -13 1q-57 178 -190 500l-162 393q-20 49 -50 127t-51.5 129t-35.5 82 q-10 0 -66 -180l-159 -533q-27 -88 -86 -340q-8 -33 5 -50t32.5 -23.5t62.5 -10.5l47 -6q8 -10 6 -26.5t-12 -24.5q-92 6 -234 6q-119 0 -215 -6q-12 8 -12 28z" />
<glyph unicode="O" horiz-adv-x="1495" d="M209 502q4 197 87 380t241 316q219 186 499 186q215 0 357 -145q130 -134 130 -373q0 -21 -1 -43q-8 -174 -83 -347t-194 -286q-236 -223 -536 -223q-246 0 -376 160q-124 153 -124 355v20zM381 424q0 -12 -1 -23q0 -151 76 -257q81 -114 267 -113q188 0 342 164 q131 141 204.5 339.5t80.5 378.5q1 17 0 33q0 169 -79 267q-87 108 -243 108q-164 0 -307 -123q-127 -106 -229.5 -317t-110.5 -457z" />
<glyph unicode="P" horiz-adv-x="1130" d="M16 19.5q0 17.5 11 25.5l63 6q74 8 104.5 48t79.5 196l265 848q17 51 16 79q0 13 -3 22q-11 28 -67 32l-98 8q-10 10 -8 24.5t14 24.5q152 25 344 25q285 0 406 -101q113 -96 112 -253q0 -190 -174 -314q-152 -104 -379 -104q-12 4 -14 18t8 25q63 8 126 33.5t124.5 71.5 t99 125t37.5 177q0 129 -74.5 193.5t-201.5 64.5q-47 0 -60.5 -11t-29.5 -60l-289 -928q-42 -129 -42 -180q0 -57 81 -64l74 -6q8 -10 5 -27.5t-14 -23.5q-147 6 -268 6q-113 0 -235 -6q-13 8 -13 25.5z" />
<glyph unicode="Q" horiz-adv-x="1495" d="M209 502q4 197 87 380t241 316q219 186 499 186q215 0 357 -145q130 -134 130 -373q0 -21 -1 -43q-8 -174 -83 -347t-194 -286q-162 -154 -336 -194q-20 -12 -2 -31q254 -254 439 -319q74 -27 176 -27q72 0 116 21q13 -7 13 -20q0 -5 -2 -11q-80 -57 -230 -58 q-190 0 -373.5 108t-308.5 265q-35 45 -94 47q-49 2 -102.5 19.5t-114.5 57.5t-109.5 97.5t-78.5 150.5q-29 87 -29 192v14zM381 424q0 -12 -1 -23q0 -151 76 -257q81 -114 267 -113q188 0 342 164q131 141 204.5 339.5t80.5 378.5q1 17 0 33q0 169 -79 267 q-87 108 -243 108q-164 0 -307 -123q-127 -106 -229.5 -317t-110.5 -457z" />
<glyph unicode="R" horiz-adv-x="1175" d="M31 19.5q0 17.5 10 25.5l45 6q76 10 105.5 50t78.5 194l240 766q40 131 40 172q0 42 -58 49l-78 8q-8 12 -5 28.5t15 22.5q133 16 348 17q270 0 387 -107q94 -84 94 -233q0 -143 -109.5 -241.5t-242.5 -121.5q-20 -2 -25.5 -12t1.5 -37q43 -182 102 -354q29 -82 45 -117 t54 -62.5t104 -33.5q18 -10 0 -39q-49 -6 -129 -6t-123 24.5t-68 96.5q-78 229 -121 397q-18 70 -35.5 86t-66.5 16q-80 0 -100.5 -10t-34.5 -55l-80 -254q-42 -129 -43 -179q0 -54 84 -65l49 -6q8 -10 5 -27.5t-13 -23.5q-129 6 -246 6q-121 0 -217 -6q-12 8 -12 25.5z M564 685q11 -11 89 -11q168 0 298 104.5t134 265.5q0 7 1 14q0 111 -67 172q-71 65 -202 64q-57 0 -73.5 -11t-28.5 -54l-144 -469q-11 -39 -11 -59q0 -12 4 -16z" />
<glyph unicode="S" horiz-adv-x="964" d="M74 111q-2 23 -2 44q0 102 39 193q25 20 43 -4q25 -313 303 -313q115 0 207 73.5t92 214.5q0 102 -51.5 172t-153.5 150q-213 172 -213 356q0 170 123 278.5t325 108.5q90 0 172 -26.5t125 -54.5q-16 -29 -75 -238q-10 -8 -27.5 -8t-28.5 10q8 39 8 74q0 65 -28 110 q-43 70 -172 70q-133 0 -205 -75t-72 -187q0 -141 199 -295q106 -82 163.5 -169t57.5 -204q0 -184 -130 -304t-341 -120q-256 1 -358 144z" />
<glyph unicode="T" horiz-adv-x="1298" d="M293 1124q92 145 147 275q6 8 19.5 8t19.5 -8q-4 -29 26 -38t122 -9h757q80 0 112 8t63 39q27 10 34 -10q-29 -49 -67.5 -147.5t-48.5 -143.5q-6 -10 -22.5 -10.5t-24.5 10.5q2 27 1 50q0 83 -23 108q-30 32 -173 32h-125q-49 0 -61.5 -12t-32.5 -78l-283 -903 q-42 -129 -42 -180q0 -57 79 -64l76 -6q12 -10 10 -27.5t-18 -23.5q-166 6 -270.5 6t-250.5 -6q-12 8 -12 25.5t10 25.5l80 6q70 4 103.5 47t81.5 197l282 903q16 52 16 71q0 6 -1 8q-6 11 -58 11h-135q-143 0 -202.5 -35.5t-141.5 -148.5q-14 -6 -28.5 0t-18.5 20z" />
<glyph unicode="U" horiz-adv-x="1503" d="M326 545l159 512q33 106 39 148q2 11 2 21q0 27 -13 43q-17 22 -75 31l-51 9q-10 8 -8 25.5t16 23.5q129 -6 240 -6q102 0 252 6q10 -6 10 -23.5t-12 -25.5l-58 -9q-84 -12 -111.5 -49t-76.5 -194l-147 -473q-47 -151 -47 -261q0 -282 313 -282q342 0 506 508l94 289 q61 190 82 317q9 39 9 66q0 21 -5 35q-12 34 -82 44l-57 9q-10 10 -7.5 26.5t15.5 22.5q150 -6 219 -6q102 0 221 6q12 -8 12 -24.5t-12 -24.5l-47 -9q-74 -12 -101.5 -39.5t-60.5 -111.5q-20 -55 -100 -311l-94 -301q-96 -303 -240 -428q-160 -141 -387 -142 q-281 0 -383 148q-55 79 -55 197q0 102 41 233z" />
<glyph unicode="V" horiz-adv-x="1273" d="M287 1358q94 -6 198 -6q125 0 224 6q14 -6 14 -23.5t-12 -25.5l-58 -9q-66 -10 -80 -33q-9 -15 -9 -58q0 -24 3 -58l72 -770q10 -115 20 -123q16 6 93 121l233 348q252 373 303 459q25 39 31 61.5t-3 33.5t-34 15l-76 13q-10 8 -8 26.5t14 22.5q119 -6 230 -6 q102 0 182 6q10 -6 10 -22.5t-6 -26.5l-59 -9q-68 -8 -121 -69q-106 -115 -348 -469l-174 -254q-61 -90 -196.5 -297t-154.5 -238q-10 -6 -24 -6t-27 6q-2 78 -14 222l-84 878q-12 133 -29.5 176t-68.5 51l-52 9q-8 9 -7 20q0 21 18 29z" />
<glyph unicode="W" horiz-adv-x="1798" d="M270 1358q98 -6 199 -6q106 0 211 6q10 -4 11 -23.5t-9 -25.5l-76 -9q-41 -4 -53 -29q-7 -15 -7 -44q0 -19 3 -43l110 -774q25 -166 33 -172q12 8 131 170l138 188q25 35 31.5 55.5t0.5 59.5l-69 467q-10 66 -27.5 90t-67.5 32l-47 9q-10 8 -8 26.5t17 22.5q82 -6 200 -6 q131 0 201 6q10 -4 10 -22.5t-10 -26.5l-68 -9q-41 -4 -53 -25q-7 -13 -7 -40q0 -18 3 -43l51 -387l37 55l70 103q147 215 188 290q10 16 -4 29.5t-39 17.5l-51 9q-10 8 -8 26.5t16 22.5q92 -6 182 -6q109 0 172 6q10 -6 10.5 -23.5t-10.5 -25.5l-39 -9q-63 -14 -91.5 -36.5 t-98.5 -108.5q-133 -168 -278 -387q-4 -4 -12.5 -15.5t-10.5 -14.5t-6 -11t-4 -14v-17q0 -10 2 -22l39 -264q25 -162 35 -172q14 6 102 141q403 612 485 756q70 117 72 135q2 12 -9.5 18t-43.5 12l-41 9q-10 8 -8 25.5t14 23.5q100 -6 186 -6q106 0 172 6q10 -4 10.5 -23.5 t-10.5 -25.5l-47 -9q-29 -6 -56.5 -21t-55 -48t-42 -50.5t-44 -62.5t-31.5 -49l-318 -467q-127 -188 -409 -629q-8 -6 -25 -6q-16 0 -24 6q-14 178 -68 506l-12 76l-275 -391q-82 -119 -123 -191q-10 -6 -24 -6t-27 6q-10 145 -45 377l-117 807q-14 94 -28 113 q-18 20 -68 30l-43 9q-9 7 -9 22q0 20 15 27z" />
<glyph unicode="X" horiz-adv-x="1179" d="M-95 24q0 14 9 21l47 6q82 10 142.5 53t172.5 166q16 18 130 138t206 223q21 24 21 47q0 11 -4 22q-25 63 -87.5 234.5t-90.5 245.5q-25 63 -46.5 86.5t-72.5 31.5l-45 9q-10 10 -6 28.5t16 22.5q137 -6 219 -6q129 0 209 6q10 -8 10 -25.5t-10 -25.5l-55 -9 q-63 -8 -76 -27q-5 -8 -5 -21q0 -19 11 -50q129 -360 150 -416q145 147 378 424q41 45 41 64.5t-47 25.5l-59 9q-10 10 -8 26.5t16 24.5q92 -6 205 -6q92 0 186 6q11 -6 12 -22v-3q-1 -18 -14 -26l-49 -9q-57 -10 -119 -63q-45 -39 -90 -81t-98 -96t-86 -89t-102.5 -109 t-100.5 -106q-27 -27 -31 -39.5t9 -44.5q39 -104 111.5 -284.5t92.5 -231.5q39 -96 103 -103l76 -6q10 -6 9 -25.5t-14 -25.5q-119 6 -221 6q-125 0 -229 -6q-12 6 -13 25.5t9 25.5l45 6q59 8 74 24q7 7 6 24q0 19 -8 51q-115 315 -164 440q-199 -217 -416 -481 q-14 -17 -14 -29q0 -16 28 -21l82 -14q10 -8 8 -28.5t-14 -22.5q-106 6 -227 6t-197 -6q-15 7 -15 30z" />
<glyph unicode="Y" horiz-adv-x="1155" d="M252 19.5q0 17.5 10 25.5l74 6q72 6 101.5 46t82.5 198l41 121q29 82 32 124v12q0 43 -18 126l-102 444q-23 100 -43 134t-74 42l-51 9q-8 10 -6 27.5t12 23.5q115 -6 217 -6q121 0 220 6q10 -8 10 -24.5t-10 -26.5l-60 -9q-57 -8 -74 -30q-9 -12 -8 -35q0 -20 6 -47 l105 -481q8 -39 19.5 -39t41.5 36l252 304q197 242 197 258q0 25 -60 34l-51 9q-10 8 -9 25.5t13 25.5q121 -6 213 -6q84 0 185 6q10 -6 10 -24.5t-10 -26.5l-43 -9q-82 -16 -115 -47q-84 -76 -201 -211l-233 -274q-109 -127 -141.5 -179t-69.5 -169l-39 -123 q-35 -111 -42 -156q-2 -14 -2 -25q0 -26 11 -39q16 -19 72 -24l73 -6q10 -8 7.5 -27.5t-13.5 -23.5q-172 6 -274 6q-106 0 -244 -6q-12 8 -12 25.5z" />
<glyph unicode="Z" horiz-adv-x="1230" d="M-40 14q0 7 3 13q70 51 283 270l899 936q10 14 9 24q0 28 -67 31h-313q-170 0 -240.5 -35.5t-162.5 -169.5q-14 -8 -29.5 -0.5t-17.5 25.5q72 121 122 295q6 6 13 6l12 -6q8 -35 40 -43t157 -8h546q164 0 220 6q20 -2 16 -25q-18 -12 -54 -44t-88.5 -85t-94.5 -97 t-108.5 -111.5t-92.5 -96.5l-469 -487q-276 -297 -277 -314q0 -35 185 -35h180q295 0 381 46q88 47 168 182q10 6 23.5 0t17.5 -17q-16 -63 -61.5 -152t-80.5 -128q-106 4 -190 4q-70 2 -213 2h-479q-145 0 -226 -6q-11 2 -11 20z" />
<glyph unicode="[" horiz-adv-x="655" d="M82 -307l510 1712h133q201 0 223 -6q6 -8 4 -21.5t-10 -19.5l-190 -23q-45 -6 -58 -20q-43 -49 -123 -320l-266 -893q-84 -285 -72 -319q4 -14 48 -21l176 -22q8 -23 -11 -41q-27 -6 -231 -6h-133z" />
<glyph unicode="\" horiz-adv-x="696" d="M123 1384h117l391 -1417h-117z" />
<glyph unicode="]" horiz-adv-x="655" d="M-123 -279.5q2 13.5 10 19.5l191 22q45 6 57 21q43 49 123 319l266 893q84 285 72 320q-4 14 -47 20l-176 23q-8 23 10 41q27 6 231 6h134l-510 -1712h-134q-203 0 -223 6q-6 8 -4 21.5z" />
<glyph unicode="^" horiz-adv-x="1146" d="M240 500l362 782h98l361 -782h-127l-283 637l-282 -637h-129z" />
<glyph unicode="_" d="M0 -154h1024v-102h-1024v102z" />
<glyph unicode="`" horiz-adv-x="737" d="M342 1237q0 25 35 47q37 27 63 27q25 0 39 -45l94 -291q0 -12 -13 -18.5t-23 -4.5l-166 228q-29 41 -29 57z" />
<glyph unicode="a" horiz-adv-x="909" d="M41 86q0 49 45 161.5t135 235.5q139 190 271 265q104 59 184 59q25 0 49 -12q27 -12 41 -43l57 131q14 6 29 6q14 0 30 -5q32 -11 42 -32q-174 -430 -275 -715q-16 -47 15 -47q55 0 210 137q29 0 29 -26q-70 -92 -167 -161t-177 -69q-31 0 -45 18.5t-14 37.5q0 20 20 79 l68 185l-6 2q-106 -133 -241.5 -227.5t-209.5 -94.5q-41 0 -65.5 35t-24.5 80zM211 119q0 -39 31 -39q53 0 198 133q207 193 275 442q-27 74 -103 74q-57 0 -145 -80q-96 -86 -176 -252.5t-80 -277.5z" />
<glyph unicode="b" horiz-adv-x="954" d="M141 160q0 123 105 403l237 631q33 88 37 121t-16 49l-47 33q-8 14 6 28q107 39 233 39h13l8 -12q-12 -33 -105 -272l-266 -701h4q115 174 220.5 265.5t213.5 91.5q86 0 131.5 -51.5t45.5 -133.5q0 -106 -70 -233t-195 -248q-113 -109 -217 -154t-174 -45 q-164 1 -164 189zM279 141q0 -106 71 -106q27 0 82 34.5t115 102.5q100 113 189 274.5t89 245.5q0 74 -71 74q-94 0 -283 -215q-92 -104 -142 -218t-50 -192z" />
<glyph unicode="c" horiz-adv-x="692" d="M92 188q0 113 67.5 264.5t192.5 264.5q131 119 266 119q74 0 113 -35t39 -86q0 -53 -36 -75t-64 -22q-35 0 -41 37q0 4 -2 21.5t-3 24t-4.5 20.5t-8.5 19t-12 13.5t-17.5 11.5t-24.5 3q-80 0 -172 -137q-53 -80 -93 -196t-44 -228q0 -8 -1 -16q0 -117 89 -117 q86 0 221 125q14 2 22.5 -8.5t4.5 -26.5q-63 -84 -154.5 -138.5t-183.5 -54.5q-66 0 -110 53t-44 164z" />
<glyph unicode="d" horiz-adv-x="970" d="M57 119q0 115 78 272.5t195 261.5q203 182 366 183q27 0 57.5 -16.5t47.5 -47.5l147 422q31 88 35 120t-16 50l-47 33q-8 14 6 28q109 39 229 39h12l9 -12q-16 -49 -129 -362q-190 -526 -318 -949q-14 -47 12 -47q25 0 102 62.5t124 122.5q29 0 30 -27 q-43 -90 -157.5 -185.5t-190.5 -95.5q-31 0 -48 19.5t-17 46.5q0 39 26 117l72 202l-8 2q-68 -92 -112 -144t-110.5 -116.5t-133 -95.5t-138.5 -31q-57 0 -90 42.5t-33 105.5zM180 92q0 -18 12.5 -30.5t26.5 -12.5q33 0 107.5 43t169.5 139q195 199 249 396q10 35 10 62 q0 25 -7 44q-16 41 -56 41q-59 0 -155 -88q-63 -59 -155.5 -182t-137.5 -217q-64 -132 -64 -195z" />
<glyph unicode="e" horiz-adv-x="708" d="M90 186q0 117 77 276t228 275q127 98 246 99q57 0 93 -39t36 -84q0 -111 -129 -193t-369 -147q-29 -70 -28 -183q0 -51 27.5 -83.5t70.5 -32.5q51 0 94 25.5t121 93.5q14 0 22.5 -10.5t4.5 -24.5q-152 -186 -328 -187q-84 0 -125 64.5t-41 150.5zM293 434 q98 31 156.5 63.5t117.5 88.5q41 39 60.5 79t19.5 60q0 47 -47 47q-66 0 -156 -98q-94 -103 -151 -240z" />
<glyph unicode="f" horiz-adv-x="534" d="M-322 -451q0 57 48 93q25 18 47 -9q80 -84 155 -84q25 0 42.5 9.5t42 49.5t46.5 113q45 158 129 498t136 512h-170q-14 14 -10.5 38t24.5 38h176q94 328 229 487q143 170 328 170q59 0 108.5 -37.5t49.5 -97.5q0 -39 -31 -78t-57 -39q-25 0 -29 33q-4 78 -37 114t-78 36 q-72 0 -147 -111q-45 -66 -81 -148.5t-55.5 -143t-54.5 -185.5h256q10 -15 10 -29q0 -25 -30 -47h-254q-6 -16 -53 -190q-84 -311 -182 -652q-68 -236 -162 -329q-119 -111 -246 -111q-74 0 -112 34.5t-38 65.5z" />
<glyph unicode="g" horiz-adv-x="782" d="M-109 -356q0 72 69 136t138.5 97t143.5 55q-66 43 -66 95q0 39 92 157q-150 39 -149 185q0 88 45 182t121 162q143 123 303 123q14 0 65 -19q8 -4 19.5 -8t18.5 -7t11 -3q51 0 99 12q61 16 92 16q43 0 43 -51q0 -63 -45 -63q-23 0 -68 10q-37 12 -75 12q-8 0 -14.5 -4 t-4.5 -8q14 -57 14 -78q0 -119 -73.5 -229.5t-186.5 -179.5q-37 -25 -145 -54q-45 -25 -45 -71q0 -51 67 -97q2 -2 201 -123q154 -90 154 -198q0 -94 -133 -169t-367 -75q-127 0 -225.5 50.5t-98.5 144.5zM33 -326q0 -70 83 -113.5t193 -43.5q90 0 180.5 36.5t90.5 102.5 q0 63 -88 125q-145 96 -191 102q-7 1 -13 1q-71 0 -177 -77q-78 -57 -78 -133zM242 315q0 -31 18.5 -51t42.5 -20q68 0 135 80q80 94 133.5 210.5t53.5 172.5q0 31 -18.5 50t-43.5 19q-61 0 -137 -84q-68 -78 -126 -190.5t-58 -186.5z" />
<glyph unicode="h" horiz-adv-x="972" d="M68 25l389 1151q0 2 2 6q20 59 26.5 81.5t11.5 47t0 34t-18 17.5l-43 29q-6 16 6 26q27 12 108 28.5t132 18.5l8 -12q-49 -137 -147 -418l-211 -612l4 -4q152 213 323 338q111 80 195 80q63 0 93 -39t30 -99q0 -98 -48 -232t-112 -247q-45 -80 -133 -168 q-80 -80 -149 -80q-76 0 -76 60q0 25 17.5 45t37.5 20q14 0 29 -12q35 -27 53 -27q39 0 82 103q49 119 98 284.5t49 243.5q0 61 -43 62q-41 0 -110 -56q-125 -94 -260 -272q-96 -127 -248 -426q-12 -25 -37 -25q-16 0 -30.5 3t-25.5 17q-7 8 -7 18q1 7 4 16z" />
<glyph unicode="i" horiz-adv-x="569" d="M106 45l261 621q18 39 -5 39q-37 0 -169 -109q-14 2 -22.5 12t-4.5 23q78 90 179 147.5t159 57.5q12 0 33 -21q7 -7 6 -21q0 -24 -19 -69l-243 -582q-18 -45 6 -45q27 0 94.5 47.5t118.5 104.5q31 -4 30 -35q-31 -57 -159.5 -150.5t-223.5 -93.5q-16 0 -32 19 q-14 15 -14 32q-1 11 5 23zM432 1128q0 43 27.5 86t81.5 43q70 0 69 -77q0 -49 -30.5 -88t-75.5 -39q-37 0 -54.5 22t-17.5 53z" />
<glyph unicode="j" horiz-adv-x="530" d="M-287 -440q0 29 19.5 54.5t46.5 25.5q14 0 24 -21q51 -88 117 -88q57 0 103 102q59 143 221 662q115 379 114 387q2 27 -16 27q-55 0 -203 -158q-29 4 -33 35q41 70 155 160t202 90q20 0 35.5 -18.5t15.5 -41.5q0 -43 -108 -395q-156 -498 -187 -574q-147 -358 -369 -358 q-68 0 -102.5 35t-34.5 76zM414 1128q0 43 27.5 86t80.5 43q70 0 70 -77q0 -49 -31 -88t-76 -39q-37 0 -54 22t-17 53z" />
<glyph unicode="k" horiz-adv-x="917" d="M82 25l375 1130q35 106 38 140t-24 46l-37 19q-20 14 -4 31q96 45 250 73l12 -10q-25 -88 -100 -301l-211 -606h4q92 123 209 211q109 78 221 78q80 0 114 -35t34 -78q0 -72 -84 -150q-166 -152 -328 -180q-16 -8 -6 -39q29 -100 76 -192q37 -68 65 -68q43 0 123 96 q27 0 27 -24q-47 -100 -108.5 -147.5t-98.5 -47.5q-47 0 -94 82q-55 100 -95 219q-21 69 -62 70q-6 0 -13 -2q-31 -8 -44.5 -22.5t-31.5 -59.5l-107 -260q-12 -27 -35 -27q-16 0 -31.5 3t-28.5 17q-8 8 -8 19q0 7 3 15zM349 395q4 -7 17 -6h7q115 10 301 133q61 41 96 89 t35 83q0 20 -16.5 37t-49.5 17q-76 0 -198 -105q-57 -49 -112.5 -114.5t-76.5 -108.5q-5 -10 -5 -17q0 -5 2 -8z" />
<glyph unicode="l" horiz-adv-x="503" d="M96 33q0 39 45 174l326 969q30 101 30 132.5t-32 45.5l-37 16q-8 6 -8 17.5t8 15.5q129 51 258 61l10 -12q-45 -123 -121 -352l-323 -967q-10 -29 -10 -45q0 -22 18 -22q53 0 236 206q33 4 32 -28q-53 -102 -146 -187.5t-206 -85.5q-80 1 -80 62z" />
<glyph unicode="m" horiz-adv-x="1492" d="M127 25q213 567 233 645q6 20 6 33q0 24 -20 24q-90 0 -180 -113q-33 0 -29 31q43 82 125 136.5t191 54.5q35 0 49 -25t0 -59l-142 -371l7 -4q121 199 253 329t242 130q103 0 103 -98q0 -64 -43 -169l-78 -188l6 -4q289 459 487 459q115 0 115 -111q0 -59 -33 -143 q-16 -45 -62 -154t-86 -202t-42 -97q-16 -39 4 -39q27 0 88 43t104 96q33 4 33 -28q-57 -96 -161.5 -163t-190.5 -67q-14 0 -31.5 16.5t-17.5 35t49 135.5q90 211 166 403q43 111 43 150q0 49 -33 49q-76 0 -268 -246q-113 -141 -322 -518q-16 -25 -37 -25q-16 0 -30.5 3 t-25.5 16.5t-3 34.5l203 536q0 2 7 17.5t13 32t13.5 38t10.5 40t3 35.5t-8.5 26.5t-22.5 9.5q-86 0 -285 -246q-49 -63 -105 -154.5t-87 -147.5t-115 -216q-14 -25 -37 -25q-16 0 -30.5 3t-25.5 17q-7 8 -6 18q0 7 3 16z" />
<glyph unicode="n" horiz-adv-x="1026" d="M123 25q100 260 237 645q18 47 -6 47q-70 0 -186 -103q-29 0 -25 31q59 82 144.5 136.5t161.5 54.5q37 0 52 -25t1 -59l-140 -359l7 -4q123 186 259 316.5t242 130.5q115 0 115 -111q0 -49 -33 -143q-16 -45 -62 -154t-86 -202t-42 -97q-16 -39 4 -39q27 0 88 43t104 96 q33 4 33 -28q-57 -96 -161.5 -163t-190.5 -67q-14 0 -31.5 16.5t-17.5 35t49 135.5q16 35 77.5 190.5t88.5 212.5q43 96 43 150q0 49 -33 49q-37 0 -118 -69.5t-165 -174.5q-51 -63 -107 -154.5t-90 -151.5t-116 -214q-14 -25 -37 -25q-16 0 -30.5 3t-25.5 17q-7 8 -7 18 q1 7 4 16z" />
<glyph unicode="o" horiz-adv-x="831" d="M96 244q6 104 65.5 234t157.5 224q139 133 283 134q106 0 161 -72q49 -64 49 -164q0 -11 -1 -22q-6 -100 -59.5 -229.5t-157.5 -235.5q-137 -141 -293 -142q-100 0 -157 72q-49 63 -49 169q0 16 1 32zM233 164q-1 -9 0 -17q0 -45 19 -76q23 -38 65 -38q82 0 162 106 q66 88 126.5 252t64.5 248v12q0 123 -82 123q-76 0 -150 -98q-84 -113 -141.5 -267.5t-63.5 -244.5z" />
<glyph unicode="p" horiz-adv-x="917" d="M-207 -506l45 8q16 2 30.5 7.5t26 8.5t21.5 11t16.5 11t14.5 14.5t11 14.5t9 19.5t7 19.5t8.5 22.5t9.5 23.5l381 1069q-88 -25 -207 -84q-12 2 -18.5 13.5t-2.5 25.5q100 72 254 113l62 165q12 10 33 10q14 0 32 -4q45 -11 52 -34l-43 -125q6 0 30.5 2t46.5 2 q59 0 115.5 -15.5t110 -71.5t53.5 -147q0 -258 -270 -485q-57 -49 -132 -77.5t-110 -34t-51 -5.5q-20 0 -64 13q-23 -6 -33 -37l-84 -242q-38 -110 -38 -144t55 -42l84 -13q23 -31 -8 -45q-35 0 -447 -12q-13 11 -13 22.5t13 22.5zM305 143q-6 -15 -6 -28q0 -15 8 -27 q29 -47 76 -47q37 0 104.5 39t124.5 127q121 186 121 385q0 74 -46 113.5t-116 39.5q-25 0 -53 -4z" />
<glyph unicode="q" horiz-adv-x="952" d="M74 125q0 156 102 326q129 219 313 319q123 66 234 66q41 0 70.5 -33t40.5 -80q66 106 110 166q5 1 11 1q9 0 19 -4q15 -7 17 -22q-8 -27 -22.5 -71.5t-44 -141t-58.5 -190.5l-245 -787q-22 -69 -23 -102q0 -6 1 -11q5 -32 44 -34l68 -6q8 -8 6 -23.5t-15 -21.5 q-147 -8 -442 -60q-12 6 -15 22.5t7 24.5l94 29q61 18 83 48t48 112l236 731h-4q-45 -63 -93.5 -122.5t-119 -131.5t-149.5 -115t-148 -43q-61 0 -93 45.5t-32 108.5zM221 121q0 -57 45 -58q55 0 172 99q170 145 258 295q57 102 58 200q0 37 -20.5 77t-53.5 40 q-70 0 -160 -82q-102 -94 -200.5 -278t-98.5 -293z" />
<glyph unicode="r" horiz-adv-x="698" d="M129 25q4 14 50 147t91 270.5t70 227.5q12 43 -16 43q-66 0 -146 -107q-16 -4 -25.5 5.5t-7.5 27.5q117 197 242 197q71 0 71 -78q0 -45 -24 -117l-88 -258h10q123 229 215 346q82 106 150 107q82 0 82 -101q0 -66 -43 -123q-18 -25 -39 -22.5t-27 33.5q-14 80 -43 79 q-25 0 -71 -61q-57 -74 -125 -194.5t-109 -204.5t-115 -246q-12 -25 -34 -25q-16 0 -31.5 3t-29.5 17q-9 9 -9 21q0 7 2 13z" />
<glyph unicode="s" horiz-adv-x="536" d="M8 80q0 35 31 67q27 25 55 0q72 -82 142 -81q39 0 68.5 34.5t29.5 81.5q0 59 -76 180q-72 117 -72 191q0 109 123 215q78 68 152 68q53 0 88 -37t35 -80q0 -45 -37 -64q-23 -6 -39 17q-25 25 -35 34t-35.5 20t-54.5 11q-41 0 -62.5 -26.5t-21.5 -55.5q0 -70 70 -186 q33 -53 46 -80t23 -65q9 -32 9 -68q0 -7 -1 -14q-4 -109 -106 -197q-84 -74 -207 -74q-55 0 -90 35t-35 74z" />
<glyph unicode="t" horiz-adv-x="581" d="M111 27q0 31 28 116l193 566h-160q-2 9 -2 17q0 30 25 40l163 29l115 202q10 7 26 8q6 0 14 -1q26 -4 38 -19l-59 -201h223q6 -8 6 -20q0 -9 -3 -20q-7 -26 -28 -35h-223l-184 -539q-6 -18 -6 -29q0 -22 20 -22q23 0 102.5 63.5t130.5 120.5q35 0 29 -37 q-82 -121 -202.5 -208t-190.5 -87q-20 0 -37.5 19t-17.5 37z" />
<glyph unicode="u" horiz-adv-x="1015" d="M119 592q43 68 165 156t189 88q23 0 46.5 -18.5t15.5 -43.5l-230 -598q-10 -27 -10 -44q0 -26 24 -26q45 0 220 170q53 53 100 113t89 127.5t66.5 110.5t60.5 112.5t44 83.5q31 6 62.5 -6t37.5 -31q-4 -10 -48 -124.5t-98 -258t-93 -251.5q-20 -51 8 -52q27 0 91.5 53.5 t109.5 106.5q35 8 37 -29q-43 -80 -162 -170t-197 -90q-25 0 -42 23.5t-9 48.5l139 375l-4 2q-131 -164 -283.5 -306.5t-228.5 -142.5q-59 0 -74 54q-5 18 -4 37q0 39 19 83l188 498q11 30 11 44.5t-11 14.5q-27 0 -88 -47t-106 -94q-14 -2 -25.5 7.5t-9.5 23.5z" />
<glyph unicode="v" horiz-adv-x="872" d="M125 608q59 84 150.5 156t173.5 72q39 0 61 -41q12 -21 12 -47q0 -23 -10 -48l-176 -456q-20 -57 -21 -97q0 -74 60 -73q90 0 223 151q84 96 130 205t46 186q0 84 -18 146q2 33 24.5 53.5t50.5 20.5q80 0 80 -127q0 -115 -100 -297.5t-229 -290.5q-180 -150 -320 -150 q-39 0 -66.5 38t-27.5 85q0 63 51 197l141 366q9 23 9 37q0 23 -23 23q-27 0 -83 -43t-107 -101q-14 0 -23.5 11.5t-7.5 23.5z" />
<glyph unicode="w" horiz-adv-x="1345" d="M127 608q59 86 148.5 157t175.5 71q39 0 60 -41q11 -21 11 -46q0 -23 -10 -49l-162 -428q-39 -100 -39 -145q0 -49 45 -49q61 0 154.5 100.5t167.5 210.5q94 143 133 328q10 49 39 79.5t57 30.5q33 0 47.5 -18t14.5 -39q0 -8 -1 -17.5t-5.5 -20.5t-7.5 -19t-10 -25.5 t-12 -28t-16.5 -35t-19.5 -38.5q-111 -227 -111 -418q0 -90 76 -90q47 0 120 54t134 142q127 182 127 342q0 84 -18 146q2 33 24.5 53.5t50.5 20.5q80 0 80 -127q0 -94 -56 -223.5t-167 -264.5q-102 -123 -210.5 -186.5t-180.5 -63.5q-35 0 -75 36t-40 81q0 61 35 174 q8 25 -1 24t-28 -26q-82 -111 -192.5 -200t-196.5 -89q-41 0 -72.5 36t-31.5 75q0 51 35 149l153 410q13 34 13 53q0 23 -19 23q-31 0 -86 -43t-102 -101q-14 0 -23.5 11.5t-7.5 23.5z" />
<glyph unicode="x" horiz-adv-x="860" d="M-18 45q0 74 59 123q25 23 45 22q16 0 20 -26q12 -57 37 -58q23 0 82 64q37 39 176 205l-86 221q-35 90 -51 94q-2 2 -6 2q-10 0 -20.5 -6t-20.5 -19.5t-17 -23.5t-18.5 -28.5t-15.5 -26.5q-16 -8 -27.5 0t-9.5 28q27 82 86 151t98 69q51 0 90 -107l89 -240q6 8 19 23.5 t45 54.5t75 90q80 94 132 136.5t99 42.5q39 0 60.5 -29t21.5 -68q0 -49 -27.5 -83.5t-54.5 -34.5q-18 0 -28 34q-14 51 -43 52q-27 0 -82.5 -55.5t-194.5 -225.5l76 -195q47 -117 74 -116q29 0 96 121q10 12 27.5 7t15.5 -20q-23 -104 -73 -178t-105 -74q-39 0 -64.5 35 t-56.5 109l-78 194q-18 -18 -73.5 -84.5t-76.5 -91.5q-135 -162 -221 -162q-35 0 -54 21.5t-19 52.5z" />
<glyph unicode="y" horiz-adv-x="749" d="M-205 -457q0 39 23.5 63.5t58.5 24.5q33 0 55 -32q23 -37 58 -37q43 0 112 57q43 37 98.5 125t82.5 182q41 148 41 417v50q-6 307 -78 307q-14 0 -28.5 -10t-31 -36.5t-28 -47t-31.5 -61.5q-31 -8 -39 26q35 111 98.5 188t135.5 77q115 0 124 -349q0 -26 1 -51 q0 -216 -31 -399h8q96 143 172 352q29 80 51.5 204t24.5 175q4 63 49 63q29 0 57 -18q18 -12 19 -45q0 -61 -58 -237q-59 -181 -180 -384q-6 -10 -35.5 -60t-37 -63.5t-34 -56.5t-39 -61.5t-39 -56t-47 -63.5t-48 -60.5t-58.5 -69.5q-180 -207 -319 -207q-47 0 -77 27.5 t-30 66.5z" />
<glyph unicode="z" horiz-adv-x="831" d="M4 29q0 37 119 145q170 154 498 463q10 10 10 18q0 16 -35 27q-125 41 -234 41q-49 0 -68.5 -24.5t-19.5 -49.5q0 -45 33 -78q0 -20 -19.5 -38.5t-51.5 -18.5q-37 0 -56.5 22.5t-19.5 53.5q0 61 92 147q92 82 213 82q57 0 131 -20q115 -35 149 -35q14 0 27.5 2t25 8 t19.5 10t16.5 13.5t12.5 13.5t11 13.5t9 11.5h7q19 0 32 -11q16 -12 13 -30q-25 -23 -154 -137.5t-264 -240.5t-250 -243l2 -6q18 0 35.5 -1t33 -3t35 -8t30.5 -10.5t31.5 -12.5t30 -12t32 -14.5t28.5 -14.5q86 -39 129 -39q35 0 64.5 26.5t29.5 67.5q0 31 -20 99 q-10 35 5 48t36 13q39 0 63.5 -32.5t24.5 -71.5q0 -92 -107 -178q-90 -72 -164 -72q-49 0 -168 51q-18 8 -68 31.5t-79 33t-51 9.5q-49 0 -76 -25.5t-43 -81.5q-7 -1 -14 0q-66 0 -66 58z" />
<glyph unicode="{" horiz-adv-x="655" d="M176 -162q0 20 4 45t9.5 43.5t17.5 54t17 50t23.5 58.5t22.5 56q6 14 19.5 48t19.5 48.5t16.5 42t15.5 44t11 39t8 40t2 33.5q0 76 -139 86q-10 31 10 45q66 4 111 19.5t68.5 44.5t32 46t18.5 50q20 63 49 211q31 158 49 225q74 254 361 254q4 -25 -13 -37 q-193 -33 -231 -200q-23 -92 -43 -209q-27 -156 -43 -211q-49 -172 -215 -211l-2 -8q104 -27 104 -142q0 -23 -12 -64.5t-26.5 -75.5t-35 -81t-24.5 -59q0 -2 -23.5 -56.5t-34 -80t-22.5 -67.5t-12 -66q0 -115 125 -142q4 -27 -11 -35q-227 0 -227 162z" />
<glyph unicode="|" horiz-adv-x="532" d="M287 -512v2048h121v-2048h-121z" />
<glyph unicode="}" horiz-adv-x="655" d="M-80 -324q-4 25 12 37q193 33 232 201q23 92 43 209q27 156 43 211q49 172 215 211l2 8q-104 27 -105 141q0 23 12.5 65t27 75.5t35 81t24.5 59.5q0 2 23.5 56t33.5 80t22.5 68t12.5 66q0 115 -125 141q-4 27 10 35q227 0 228 -161q0 -20 -4.5 -45t-9.5 -43.5t-17 -54.5 t-17.5 -50t-24 -58t-22.5 -57q-6 -14 -19 -48t-19.5 -48t-16.5 -42t-15 -44t-11.5 -38.5t-8.5 -40t-2 -34.5q0 -76 139 -86q10 -31 -10 -45q-66 -4 -110.5 -19t-68 -44t-32 -46.5t-18.5 -49.5q-20 -63 -49 -211q-31 -158 -49 -226q-25 -84 -69 -139t-99.5 -78.5t-100.5 -31 t-92 -5.5z" />
<glyph unicode="~" horiz-adv-x="1146" d="M238 264q47 115 92 164q43 43 116 43h254q76 0 109 25.5t74 107.5q20 8 40.5 1t26.5 -30q-51 -129 -94 -167q-41 -37 -115 -37h-254q-76 0 -108.5 -27t-73.5 -108q-20 -8 -40.5 -1.5t-26.5 29.5z" />
<glyph unicode="&#xa1;" horiz-adv-x="421" d="M-115 -479q4 10 11.5 28.5t24 60.5t32.5 83l254 665q6 12 24.5 12.5t28.5 -12.5l-141 -661q-29 -139 -41 -178q-12 -41 -33.5 -52.5t-75.5 -11.5q-57 0 -75.5 17.5t-8.5 48.5zM219 680q0 53 36 90t81 37q43 0 66.5 -27.5t23.5 -64.5q0 -59 -35 -95t-82 -36 q-43 0 -66.5 25.5t-23.5 70.5z" />
<glyph unicode="&#xa2;" d="M246 563q0 213 160.5 357.5t379.5 156.5l52 176q43 20 80 0l-52 -174q129 -8 203 -53q23 -27 10 -78q-6 -23 -23.5 -46t-31.5 -23q-10 0 -14 6q-66 98 -164 123l-209 -711q59 -20 154.5 16.5t144.5 87.5q10 0 18.5 -10t6.5 -22q-47 -63 -141.5 -107.5t-207.5 -44.5 l-61 -209q-14 -16 -41 -15t-39 15l64 215q-143 23 -216 117t-73 223zM403 600q0 -231 160 -285l205 699q-154 -8 -259.5 -133t-105.5 -281z" />
<glyph unicode="&#xa3;" d="M2 8q10 49 129 133q168 119 242 447q6 16 1 22t-28 6h-168q-10 10 -4 33t21 33h165q20 0 25.5 3t5.5 15q10 61 25 121q47 221 179 355.5t304 134.5q98 0 150 -51q16 -18 16 -37q2 -33 -25.5 -65t-46.5 -32q-10 0 -26 15q-88 84 -168 84q-139 0 -203 -287 q-10 -41 -20.5 -115.5t-16.5 -109.5q-2 -18 4 -24.5t31 -6.5h301q10 -8 4 -32.5t-20 -33.5h-299q-27 0 -36 -5t-14 -23q-53 -254 -290 -424v-4q78 10 163 -2q41 -6 168 -64q111 -53 185 -53q92 0 104 147q6 76 49 76q35 0 55.5 -30.5t12.5 -71.5q-18 -78 -128 -150.5 t-224 -72.5q-94 0 -226 79q-123 76 -192.5 76t-87.5 -67q-4 -20 -36 -38t-52 -18q-35 0 -29 37z" />
<glyph unicode="&#xa4;" d="M186 641q0 158 90 270l-88 93q4 31 33 59.5t64 38.5l77 -105q111 82 244 82q137 0 244 -82l80 105q35 -10 63.5 -39t30.5 -59l-86 -93q88 -115 88 -270.5t-88 -269.5l86 -92q-2 -31 -30.5 -60t-63.5 -39l-80 105q-106 -82 -244 -82q-133 0 -244 82l-77 -105 q-35 10 -63.5 39t-33.5 60l88 92q-90 112 -90 270zM303 641q0 -145 91 -244.5t212 -99.5t212 100.5t91 243.5q0 141 -91 242.5t-212 101.5q-123 0 -213 -101.5t-90 -242.5z" />
<glyph unicode="&#xa5;" d="M152.5 466.5q5.5 22.5 19.5 31.5h311l49 166h-311q-6 12 -2 34.5t19 30.5h282l-110 336q-33 96 -52.5 127t-66.5 45l-43 12q-8 10 -6 24.5t14 18.5q104 -6 211 -6q125 0 199 6q12 -8 12 -21.5t-10 -21.5l-88 -18q-45 -8 -51.5 -28.5t10.5 -76.5l75 -262q25 -92 41 -108 q14 10 86 90l205 237q98 115 70 140q-8 6 -23 10l-61 16q-18 27 8 43q117 -6 201 -6q70 0 162 6q27 -20 6 -43l-58 -14q-41 -10 -89 -46t-72.5 -61.5t-73.5 -78.5l-295 -320h303q8 -14 4 -35.5t-20 -29.5h-330l-53 -166h315q8 -14 3 -36t-21 -30h-320l-59 -201 q-33 -104 -23 -139t88 -45l60 -8q18 -25 -6 -45q-125 6 -242 6q-133 0 -242 -6q-10 8 -9 22.5t13 22.5l54 8q84 12 113.5 44t62.5 147l55 194h-313q-7 12 -1.5 34.5z" />
<glyph unicode="&#xa6;" horiz-adv-x="532" d="M287 -358v716h121v-716h-121zM287 666v716h121v-716h-121z" />
<glyph unicode="&#xa7;" horiz-adv-x="942" d="M14 -113q0 29 26 36t48 -13q100 -78 193 -78q78 0 131 44t53 128q0 127 -107 383q-109 254 -108 373q0 133 106.5 283.5t259.5 256.5q184 127 279 127q57 0 101 -38.5t44 -94.5q0 -80 -55 -80q-14 0 -29 31q-49 86 -131 86q-84 0 -135 -48t-51 -126q0 -131 94 -360 q8 -23 27.5 -71t27 -65.5t21.5 -54.5t19.5 -53t14.5 -44t11 -46.5t5 -41t3 -44.5q0 -115 -61.5 -207t-186.5 -207q-256 -236 -421 -235q-74 0 -126.5 44.5t-52.5 114.5zM373 850q0 -150 94 -371q106 -252 108 -327q4 -70 -6 -142l4 -4q57 53 107.5 139t50.5 183 q0 117 -80 313q-115 283 -121 340q-8 106 15 182l-2 4q-59 -53 -114.5 -143t-55.5 -174z" />
<glyph unicode="&#xa8;" horiz-adv-x="737" d="M381 1128q0 47 29.5 79t68.5 32q35 0 55.5 -23.5t20.5 -54.5q0 -51 -29.5 -80.5t-68.5 -29.5q-35 0 -55.5 21t-20.5 56zM698 1128q0 47 30 79t69 32q35 0 55 -23.5t20 -54.5q0 -51 -29.5 -80.5t-68.5 -29.5q-35 0 -55.5 21t-20.5 56z" />
<glyph unicode="&#xa9;" horiz-adv-x="1689" d="M248 676q0 297 205.5 502.5t511 205.5t511 -205.5t205.5 -502.5t-205.5 -503t-511 -206t-511 206t-205.5 503zM365 678q0 -266 173 -448.5t427 -182.5t427 182.5t173 448.5q0 264 -173 445.5t-427 181.5t-427 -181.5t-173 -445.5zM575 672q0 182 131.5 296.5t327.5 114.5 q49 0 103.5 -7t95.5 -16t49 -9q6 -35 13.5 -99.5t11.5 -91.5q-6 -10 -20.5 -12t-22.5 6q-55 174 -242 174q-139 0 -216 -97t-77 -247q0 -162 84 -260t221 -98q166 0 252 194q25 20 41 -6q-4 -41 -20.5 -103.5t-34.5 -93.5q-150 -47 -250 -47q-213 0 -330 119t-117 283z" />
<glyph unicode="&#xaa;" horiz-adv-x="745" d="M141 573.5q0 32.5 35 113.5t105 169q104 133 208 188q82 41 154 41q47 0 70 -38l45 94q20 8 49 0t39 -23q-127 -276 -213 -508q-12 -35 12 -35q47 0 160 99q25 0 24 -25q-49 -61 -126.5 -109t-149.5 -48q-23 0 -34 13t-11 25q0 14 16 58l45 117l-2 -3l-4 5 q-80 -86 -180 -150.5t-160 -64.5q-39 0 -60.5 24.5t-21.5 57zM287 600q0 -27 22 -27q39 0 146 95q68 57 132 151t83 160q-20 51 -74 51q-49 0 -113 -55q-76 -61 -136 -179t-60 -196z" />
<glyph unicode="&#xab;" horiz-adv-x="819" d="M162 389q-20 31 12 64q53 53 157.5 155.5t153.5 151.5q25 4 29 -27l-205 -287q-18 -23 -10 -49l82 -297q-4 -12 -16.5 -18t-22.5 -2q-106 192 -180 309zM449 389q-20 31 12 64q53 53 157.5 155.5t153.5 151.5q25 4 29 -27l-205 -287q-18 -23 -10 -49l82 -297 q-4 -12 -16.5 -18t-22.5 -2q-106 192 -180 309z" />
<glyph unicode="&#xac;" horiz-adv-x="1146" d="M182 524v101h889v-523h-121v422h-768z" />
<glyph unicode="&#xad;" horiz-adv-x="655" d="M111.5 414q5.5 39 25.5 57l498 45q16 -20 10 -59t-27 -58l-497 -45q-15 21 -9.5 60z" />
<glyph unicode="&#xae;" horiz-adv-x="634" d="M307 1126.5q0 108.5 78 184t188.5 75.5t188.5 -75.5t78 -184t-78 -184.5t-188.5 -76t-188.5 76t-78 184.5zM371 1126q0 -88 59 -151.5t143 -63.5t143.5 63.5t59.5 151.5q0 90 -59.5 152.5t-143.5 62.5t-143 -62.5t-59 -152.5zM454 1014q-1 8 3 10l8 2q16 4 19 11t3 32 v117q0 39 -22 41h-8q-4 6 -3 13t5 9q86 4 114 4q102 0 103 -69q0 -39 -37 -58q-6 -2 0 -14q33 -70 51 -82q14 -10 19 -12q4 0 4 -6t-4 -8q-10 -2 -29 -3q-49 0 -76 43q-2 4 -29 52q-6 12 -18 12t-12 -10v-29q0 -25 4 -33t24 -10l7 -2q2 -2 2 -10t-2 -10q-10 0 -30 1t-32 1 t-31.5 -1t-27.5 -1q-4 2 -5 10zM545 1147q0 -10 4 -12t20 -2q41 0 41 41q0 51 -39 51q-27 0 -26 -17v-61z" />
<glyph unicode="&#xaf;" horiz-adv-x="737" d="M442 1099.5q0 28.5 17 47.5h379q14 -18 14 -47t-14 -47h-379q-17 18 -17 46.5z" />
<glyph unicode="&#xb0;" horiz-adv-x="819" d="M342 1047q0 117 80 190.5t194.5 73.5t194.5 -74t80 -190q0 -121 -79 -193t-195.5 -72t-195.5 72t-79 193zM457 1047q0 -86 45 -139.5t114.5 -53.5t114.5 53.5t45 139.5t-45 139t-114.5 53t-114.5 -53t-45 -139z" />
<glyph unicode="&#xb1;" horiz-adv-x="1146" d="M242 0v100h788v-100h-788zM242 510v100h336v324h120v-324h332v-100h-332v-338h-120v338h-336z" />
<glyph unicode="&#xb2;" horiz-adv-x="737" d="M156 672q104 63 256 184q4 2 45 36t52 43t49 42t52.5 49t41 49t36.5 56.5t20.5 54.5t10.5 59q0 55 -37 91t-96 36q-96 0 -193 -119q-10 -4 -20.5 2.5t-12.5 18.5q43 80 120 128t163 48q100 0 161.5 -52t61.5 -141q0 -82 -58 -149.5t-177 -155.5l-103 -75 q-135 -102 -135 -123q0 -10 37 -11h127q78 0 117 13.5t69 58.5q8 6 24.5 4t20.5 -10q-35 -55 -88 -168q-66 4 -208 4h-177q-104 0 -153 -4q-18 13 -6 31z" />
<glyph unicode="&#xb3;" horiz-adv-x="737" d="M178 649q0 25 18.5 43.5t45.5 18.5q41 0 69 -56q18 -37 62 -37q125 0 217 90.5t92 211.5q0 63 -40 102t-103 39q-70 0 -146 -60q-41 18 -16 64q6 2 47 16.5t72.5 26.5t76.5 34.5t76 44t53.5 51.5t22.5 60q0 41 -28.5 62.5t-69.5 21.5q-51 0 -105.5 -34.5t-93.5 -85.5 q-31 -4 -31 26q43 70 119 116t162 46q80 0 130 -40t50 -101q0 -106 -199 -172q-16 -14 13 -21q66 -16 114 -62t48 -118q0 -113 -84 -201t-199 -129t-225 -41q-70 0 -110 21.5t-38 62.5z" />
<glyph unicode="&#xb4;" horiz-adv-x="737" d="M592 965l192 292q27 43 50 41q27 0 57.5 -30.5t26.5 -53.5q0 -20 -35 -49l-258 -227q-12 0 -22.5 8.5t-10.5 18.5z" />
<glyph unicode="&#xb5;" horiz-adv-x="1015" d="M-76 -487q387 1047 484 1310q2 12 34 13q37 0 68 -16.5t27 -33.5l-238 -610q-12 -37 -5 -53.5t25 -16.5q47 0 218 170q53 53 100 111.5t90 129.5t65.5 109t63.5 115.5t43 81.5q31 6 62.5 -6t37.5 -31q-4 -10 -48 -124.5t-98 -258t-93 -251.5q-20 -51 8 -52 q27 0 91.5 53.5t109.5 106.5q35 8 37 -29q-43 -80 -162 -170t-197 -90q-25 0 -42 23.5t-9 48.5l129 350l-4 2q-121 -147 -269.5 -285.5t-205.5 -138.5q-20 0 -33 11q-12 2 -20.5 -9.5t-16.5 -35.5l-31 -87q-29 -78 -28 -186q0 -88 -15 -131q-12 -35 -54 -59.5t-93 -24.5 q-54 1 -31 64z" />
<glyph unicode="&#xb6;" d="M158 -305q0 43 23.5 71.5t51.5 38.5q33 0 61 -19t25 -42q-33 -29 -32 -66q0 -27 17.5 -42t41.5 -15q117 0 205 293l90 297q10 43 4 58.5t-33 17.5q-51 4 -110.5 25.5t-116.5 61.5t-95 106.5t-38 148.5q0 104 49 196.5t133 151.5q186 129 496 129q203 0 250 -10 q10 -6 8 -23.5t-12 -21.5l-86 -15q-86 -14 -105.5 -30.5t-42.5 -94.5l-285 -958q-18 -66 -32.5 -107t-44 -101t-61.5 -96t-82 -62.5t-109 -26.5q-76 0 -123 37t-47 98z" />
<glyph unicode="&#xb7;" horiz-adv-x="512" d="M195 408q0 53 35.5 90t80.5 37q43 0 66.5 -28t23.5 -65q0 -59 -34.5 -95t-81.5 -36q-43 0 -66.5 26t-23.5 71z" />
<glyph unicode="&#xb8;" horiz-adv-x="737" d="M113 -379q0 16 14 32.5t37 16.5q20 0 49 -28q31 -31 43 -31q20 0 38.5 15.5t18.5 47.5q0 78 -108 127v9l139 190h68l-74 -100q-23 -27 10 -54q76 -61 76 -133q0 -63 -65.5 -110t-143.5 -47q-102 -1 -102 65z" />
<glyph unicode="&#xb9;" horiz-adv-x="737" d="M270 660.5q0 15.5 6 19.5l37 4q61 8 81 30.5t44 104.5l119 400q18 66 16 77q2 12 -9 18.5t-34 10.5l-61 10q-16 20 4 35q162 25 258 72q18 4 23 -12q-39 -109 -49 -146l-138 -467q-25 -78 -18.5 -102.5t59.5 -30.5l39 -4q8 -6 6 -20.5t-12 -18.5q-106 4 -195 4 q-96 0 -170 -4q-6 4 -6 19.5z" />
<glyph unicode="&#xba;" horiz-adv-x="671" d="M180 684q4 78 49 169t115 153q115 100 238 100q90 0 134 -50t40 -134q-4 -70 -46 -162t-122 -168q-104 -100 -234 -100q-80 0 -130 51t-44 141zM297 629q-2 -35 17.5 -59.5t52.5 -24.5q70 0 129 80q61 82 98 178t41 158q4 92 -70 92q-59 0 -125 -80q-55 -68 -98 -176.5 t-45 -167.5z" />
<glyph unicode="&#xbb;" horiz-adv-x="819" d="M104 106l205 287q18 23 10 49l-81 297q4 12 16 18.5t22 2.5q106 -193 181 -309q20 -31 -13 -64q-53 -53 -157.5 -155.5t-153.5 -151.5q-25 -5 -29 26zM391 106l205 287q18 23 10 49l-82 297q4 12 16.5 18.5t22.5 2.5q106 -193 180 -309q20 -31 -12 -64 q-53 -53 -157.5 -155.5t-153.5 -151.5q-25 -5 -29 26z" />
<glyph unicode="&#xbc;" horiz-adv-x="1679" d="M221 521.5q0 15.5 6 19.5l37 4q61 8 81 30.5t44 104.5l119 399q18 66 16 78q2 12 -9 18.5t-34 10.5l-61 10q-16 20 4 35q162 25 258 72q18 4 23 -13q-39 -109 -50 -145l-137 -467q-25 -78 -18.5 -102.5t59.5 -30.5l39 -4q8 -6 6 -20.5t-12 -18.5q-106 4 -195 4 q-96 0 -170 -4q-6 4 -6 19.5zM324 -29q561 666 1140 1368q20 0 40 -14t20 -37q-514 -608 -1145 -1370q-55 0 -55 53zM901 258q6 18 33 43l606 559q25 25 45 25q41 0 41 -11q0 -4 -8 -12l-586 -538q-18 -20 -12 -25.5t39 -5.5h190q27 0 35 5t14 28l68 227q4 18 18 25 q45 23 89 22q18 0 20 -10t-6 -29l-72 -239q-6 -18 -3 -23.5t24 -5.5h77q10 -8 5 -27.5t-19 -27.5h-69q-29 0 -36.5 -5.5t-11.5 -23.5l-20 -72q-16 -49 -12 -70.5t49 -27.5l49 -8q8 -6 5 -18.5t-11 -16.5q-139 4 -185 4q-70 0 -172 -4q-8 4 -7 16.5t9 18.5l50 8 q49 8 70.5 25.5t35.5 72.5l19 68q8 20 3 26.5t-32 6.5h-320q-18 0 -12 20z" />
<glyph unicode="&#xbd;" horiz-adv-x="1679" d="M188 521.5q0 15.5 7 19.5l36 4q61 8 81 30.5t44 104.5l119 399q18 66 17 78q2 12 -9.5 18.5t-33.5 10.5l-62 10q-16 20 4 35q162 25 258 72q18 4 23 -13q-39 -109 -49 -145l-138 -467q-25 -78 -18.5 -102.5t59.5 -30.5l39 -4q8 -6 6 -20.5t-12 -18.5q-106 4 -194 4 q-96 0 -170 -4q-7 4 -7 19.5zM283 -29q561 666 1140 1368q20 0 40 -14t20 -37q-514 -608 -1145 -1370q-55 0 -55 53zM918 27q104 63 256 184q4 2 45 36t52 43t49 42t52 49t41 49t37 56.5t20.5 54t10.5 59.5q0 55 -37 91t-96 36q-96 0 -193 -119q-10 -4 -20.5 2t-12.5 19 q43 80 120 128t163 48q100 0 161.5 -52.5t61.5 -140.5q0 -82 -58.5 -149.5t-176.5 -155.5l-103 -76q-135 -100 -135 -122q0 -10 37 -11h127q78 0 117 13.5t69 58.5q8 6 24.5 4t20.5 -10q-35 -55 -88 -168q-66 4 -209 4h-176q-104 0 -153 -4q-18 13 -6 31z" />
<glyph unicode="&#xbe;" horiz-adv-x="1679" d="M160 510q0 25 18.5 43t44.5 18q41 0 70 -55q18 -37 61 -37q125 0 217.5 90t92.5 211q0 63 -40 102.5t-104 39.5q-70 0 -145 -60q-41 18 -17 64q6 2 47 16t73 26.5t77 35t76 44t53.5 51t22.5 60.5q0 41 -29 62.5t-70 21.5q-51 0 -105 -34.5t-93 -86.5q-31 -4 -31 27 q43 70 118.5 116t161.5 46q80 0 130.5 -40t50.5 -102q0 -106 -199 -172q-18 -8 4 -16l8 -4q66 -16 114 -62.5t48 -117.5q0 -113 -84 -201t-198.5 -129t-225.5 -41q-147 0 -147 84zM393 -29q561 666 1141 1368q20 0 39.5 -14t19.5 -37q-514 -608 -1144 -1370q-56 0 -56 53z M950 258q6 18 33 43l606 559q25 25 45 25q41 0 41 -11q0 -4 -8 -12l-586 -538q-18 -20 -12 -25.5t39 -5.5h190q27 0 35 5t15 28l67 227q4 18 19 25q45 23 88 22q18 0 20 -10t-6 -29l-72 -239q-6 -18 -3 -23.5t24 -5.5h78q10 -8 5 -27.5t-20 -27.5h-69q-29 0 -36 -5.5 t-11 -23.5l-21 -72q-16 -49 -12 -70.5t49 -27.5l49 -8q8 -6 5 -18.5t-11 -16.5q-139 4 -184 4q-70 0 -172 -4q-8 4 -7.5 16.5t9.5 18.5l49 8q49 8 70.5 25.5t35.5 72.5l19 68q8 20 3 26.5t-32 6.5h-319q-19 0 -13 20z" />
<glyph unicode="&#xbf;" horiz-adv-x="614" d="M-47 -254q0 182 211 299l137 76q94 53 94 133q0 47 -18 98q12 23 33 10q90 -117 63 -217q-25 -92 -160 -165l-127 -72q-84 -47 -125 -89t-41 -98q0 -66 43 -105.5t101 -39.5q47 0 92 23l45 22q14 0 26.5 -15.5t12.5 -41.5q0 -43 -42 -76t-105 -33q-90 0 -165 90t-75 201z M354 680q0 53 36 90t81 37q43 0 66.5 -27.5t23.5 -64.5q0 -59 -34.5 -95t-82.5 -36q-43 0 -66.5 25.5t-23.5 70.5z" />
<glyph unicode="&#xc0;" horiz-adv-x="1220" d="M-111 -6q-20 27 5 51l55 6q82 8 147 86q74 90 338 461l361 508q109 152 123 211q31 4 66.5 21.5t59.5 31.5l23 14q25 0 25 -16q0 -14 -3.5 -50t-8.5 -105.5t-9 -145.5l-41 -774q-4 -68 -5 -97.5t2 -62.5t6 -42t19.5 -20.5t31 -13.5t46.5 -6l54 -6q8 -10 5 -27.5 t-13 -23.5q-94 6 -232 6q-143 0 -235 -6q-14 6 -15.5 25.5t13.5 25.5l63 6q61 6 80 33q16 27 22 127l19 274q4 35 -3 44.5t-40 9.5h-295q-47 0 -62.5 -9.5t-44.5 -54.5l-159 -233q-92 -145 -92 -154q0 -23 47 -31l88 -12q12 -10 10 -27.5t-14 -23.5q-96 6 -209 6 q-117 0 -228 -6zM560 627q7 -6 40 -6h258q27 0 33 7t8 34l33 448q4 53 -4 53q-10 0 -78 -100l-285 -412q-12 -18 -5 -24zM768 1602q-12 25 12 71q20 39 47 39q20 0 47 -24l250 -201q4 -12 -2 -24.5t-16 -16.5l-295 125q-33 15 -43 31z" />
<glyph unicode="&#xc1;" horiz-adv-x="1220" d="M-111 -6q-20 27 5 51l55 6q82 8 147 86q74 90 338 461l361 508q109 152 123 211q31 4 66.5 21.5t59.5 31.5l23 14q25 0 25 -16q0 -14 -3.5 -50t-8.5 -105.5t-9 -145.5l-41 -774q-4 -68 -5 -97.5t2 -62.5t6 -42t19.5 -20.5t31 -13.5t46.5 -6l54 -6q8 -10 5 -27.5 t-13 -23.5q-94 6 -232 6q-143 0 -235 -6q-14 6 -15.5 25.5t13.5 25.5l63 6q61 6 80 33q16 27 22 127l19 274q4 35 -3 44.5t-40 9.5h-295q-47 0 -62.5 -9.5t-44.5 -54.5l-159 -233q-92 -145 -92 -154q0 -23 47 -31l88 -12q12 -10 10 -27.5t-14 -23.5q-96 6 -209 6 q-117 0 -228 -6zM560 627q7 -6 40 -6h258q27 0 33 7t8 34l33 448q4 53 -4 53q-10 0 -78 -100l-285 -412q-12 -18 -5 -24zM948 1487l250 201q27 25 47 24q27 0 47 -39q25 -47 13 -71q-10 -16 -43 -31l-295 -125q-10 4 -16.5 16.5t-2.5 24.5z" />
<glyph unicode="&#xc2;" horiz-adv-x="1220" d="M-111 -6q-20 27 5 51l55 6q82 8 147 86q74 90 338 461l361 508q109 152 123 211q31 4 66.5 21.5t59.5 31.5l23 14q25 0 25 -16q0 -14 -3.5 -50t-8.5 -105.5t-9 -145.5l-41 -774q-4 -68 -5 -97.5t2 -62.5t6 -42t19.5 -20.5t31 -13.5t46.5 -6l54 -6q8 -10 5 -27.5 t-13 -23.5q-94 6 -232 6q-143 0 -235 -6q-14 6 -15.5 25.5t13.5 25.5l63 6q61 6 80 33q16 27 22 127l19 274q4 35 -3 44.5t-40 9.5h-295q-47 0 -62.5 -9.5t-44.5 -54.5l-159 -233q-92 -145 -92 -154q0 -23 47 -31l88 -12q12 -10 10 -27.5t-14 -23.5q-96 6 -209 6 q-117 0 -228 -6zM560 627q7 -6 40 -6h258q27 0 33 7t8 34l33 448q4 53 -4 53q-10 0 -78 -100l-285 -412q-12 -18 -5 -24zM770 1470l301 224q25 18 45 18q25 0 33 -18l170 -224q-2 -12 -13.5 -23t-21.5 -11l-172 127q-16 16 -29 16q-14 0 -34 -12l-263 -131q-10 0 -15 11 t-1 23z" />
<glyph unicode="&#xc3;" horiz-adv-x="1220" d="M-111 -6q-20 27 5 51l55 6q82 8 147 86q74 90 338 461l361 508q109 152 123 211q31 4 66.5 21.5t59.5 31.5l23 14q25 0 25 -16q0 -14 -3.5 -50t-8.5 -105.5t-9 -145.5l-41 -774q-4 -68 -5 -97.5t2 -62.5t6 -42t19.5 -20.5t31 -13.5t46.5 -6l54 -6q8 -10 5 -27.5 t-13 -23.5q-94 6 -232 6q-143 0 -235 -6q-14 6 -15.5 25.5t13.5 25.5l63 6q61 6 80 33q16 27 22 127l19 274q4 35 -3 44.5t-40 9.5h-295q-47 0 -62.5 -9.5t-44.5 -54.5l-159 -233q-92 -145 -92 -154q0 -23 47 -31l88 -12q12 -10 10 -27.5t-14 -23.5q-96 6 -209 6 q-117 0 -228 -6zM560 627q7 -6 40 -6h258q27 0 33 7t8 34l33 448q4 53 -4 53q-10 0 -78 -100l-285 -412q-12 -18 -5 -24zM829 1427q6 31 28 82.5t42 69.5q35 39 102 39h103q57 0 82.5 13.5t60.5 62.5q23 12 33 -8q-23 -88 -72 -138q-33 -31 -92 -30h-100q-59 0 -93 -22.5 t-63 -76.5q-21 -12 -31 8z" />
<glyph unicode="&#xc4;" horiz-adv-x="1220" d="M-111 -6q-20 27 5 51l55 6q82 8 147 86q74 90 338 461l361 508q109 152 123 211q31 4 66.5 21.5t59.5 31.5l23 14q25 0 25 -16q0 -14 -3.5 -50t-8.5 -105.5t-9 -145.5l-41 -774q-4 -68 -5 -97.5t2 -62.5t6 -42t19.5 -20.5t31 -13.5t46.5 -6l54 -6q8 -10 5 -27.5 t-13 -23.5q-94 6 -232 6q-143 0 -235 -6q-14 6 -15.5 25.5t13.5 25.5l63 6q61 6 80 33q16 27 22 127l19 274q4 35 -3 44.5t-40 9.5h-295q-47 0 -62.5 -9.5t-44.5 -54.5l-159 -233q-92 -145 -92 -154q0 -23 47 -31l88 -12q12 -10 10 -27.5t-14 -23.5q-96 6 -209 6 q-117 0 -228 -6zM560 627q7 -6 40 -6h258q27 0 33 7t8 34l33 448q4 53 -4 53q-10 0 -78 -100l-285 -412q-12 -18 -5 -24zM791 1520q0 47 28.5 77.5t67.5 30.5q35 0 55.5 -23.5t20.5 -54.5q0 -49 -30 -77.5t-69 -28.5q-35 0 -54 20.5t-19 55.5zM1147 1520q0 47 28.5 77.5 t67.5 30.5q35 0 55.5 -23.5t20.5 -54.5q0 -49 -28.5 -77.5t-69.5 -28.5q-35 0 -54.5 20.5t-19.5 55.5z" />
<glyph unicode="&#xc5;" horiz-adv-x="1220" d="M-111 -6q-20 27 5 51l55 6q82 8 147 86q74 90 338 461l361 508q109 152 123 211q31 4 66.5 21.5t59.5 31.5l23 14q25 0 25 -16q0 -14 -3.5 -50t-8.5 -105.5t-9 -145.5l-41 -774q-4 -68 -5 -97.5t2 -62.5t6 -42t19.5 -20.5t31 -13.5t46.5 -6l54 -6q8 -10 5 -27.5 t-13 -23.5q-94 6 -232 6q-143 0 -235 -6q-14 6 -15.5 25.5t13.5 25.5l63 6q61 6 80 33q16 27 22 127l19 274q4 35 -3 44.5t-40 9.5h-295q-47 0 -62.5 -9.5t-44.5 -54.5l-159 -233q-92 -145 -92 -154q0 -23 47 -31l88 -12q12 -10 10 -27.5t-14 -23.5q-96 6 -209 6 q-117 0 -228 -6zM560 627q7 -6 40 -6h258q27 0 33 7t8 34l33 448q4 53 -4 53q-10 0 -78 -100l-285 -412q-12 -18 -5 -24zM866 1611.5q0 67.5 50.5 117t124 49.5t123.5 -49.5t50 -117t-49 -116.5t-124.5 -49t-125 49t-49.5 116.5zM948 1612q0 -47 26.5 -78t65.5 -31 q41 0 67 31t26 78t-27 76.5t-66 29.5t-65.5 -30.5t-26.5 -75.5z" />
<glyph unicode="&#xc6;" horiz-adv-x="1724" d="M-150 22.5q0 18.5 11 26.5l45 6q55 8 100 41t125 123q510 586 815 967q49 61 49 78.5t-45 23.5l-116 19q-10 6 -7.5 25.5t17.5 25.5q127 -6 256 -6h514q227 0 289 6q-25 -61 -84 -273q-6 -12 -26.5 -11t-25.5 13q14 78 2 122t-73 61q-70 18 -217 18h-121q-41 0 -53.5 -10 t-26.5 -59l-129 -420q-14 -43 -10 -51.5t47 -8.5h102q147 0 197.5 17.5t85.5 83.5l33 61q6 10 27.5 9t23.5 -13q-39 -92 -70 -199q-29 -92 -53 -198q-10 -12 -27.5 -11.5t-23.5 13.5v57q0 76 -40 92.5t-171 16.5h-103q-43 0 -54 -8.5t-26 -51.5l-86 -276q-31 -102 -38 -140 t4 -86q20 -43 227 -43q182 0 263 35t173 178q33 20 47 -12q-16 -55 -60 -144t-81 -126q-35 2 -111.5 3t-115.5 1q-41 0 -122 1t-120 1h-242q-109 0 -243 -6q-12 8 -12.5 25.5t10.5 25.5l71 12q76 12 106.5 49t78.5 189l100 323q10 33 0 41.5t-55 8.5h-211q-35 0 -53.5 -10.5 t-53.5 -53.5q-236 -285 -373 -463q-55 -70 0 -78l89 -14q10 -10 8 -29.5t-13 -25.5q-102 6 -221 6q-90 0 -192 -6q-11 10 -11 28.5zM688 745.5q4 -6.5 45 -6.5h160q53 0 71.5 10.5t30.5 51.5l125 409q18 61 15 78h-5q-8 -4 -17 -15l-22.5 -27.5t-19.5 -22.5 q-233 -283 -364 -447q-23 -24 -19 -30.5z" />
<glyph unicode="&#xc7;" horiz-adv-x="1323" d="M209 518q0 172 81 335t212 281.5t310 184t378 65.5q172 0 336 -65q-61 -152 -92 -275q-6 -12 -29 -11t-27 14q31 139 -19 206.5t-204 67.5q-291 0 -524 -229q-92 -92 -167 -260t-75 -353q0 -219 101.5 -333.5t295.5 -114.5q266 0 441 286q39 16 49 -14 q-41 -125 -133 -289q-27 0 -162 -22q-143 -25 -199 -25q-23 0 -30 2l-39 -49q-25 -33 2 -53q80 -66 80 -125q0 -70 -63.5 -118t-141.5 -48q-102 0 -103 66q0 16 14.5 32.5t37.5 16.5q20 0 49 -29q31 -31 43 -31q20 0 38.5 15.5t18.5 48.5q0 78 -108 127v8l106 143 q-205 23 -341 153t-136 392z" />
<glyph unicode="&#xc8;" horiz-adv-x="1159" d="M4 19.5q0 17.5 10 25.5l72 6q74 6 104.5 47t79.5 197l238 762q47 143 41 184t-86 57l-41 9q-10 12 -7 28.5t19 22.5q74 -4 109 -4q37 -2 119 -2h387q227 0 288 6q-25 -61 -84 -273q-6 -12 -26.5 -11t-24.5 13q14 78 2 122t-74 61q-70 18 -217 18h-120q-39 0 -52.5 -11 t-27.5 -58l-131 -420q-14 -43 -10.5 -51.5t46.5 -8.5h103q147 0 197.5 17.5t85.5 83.5l32 61q6 10 27.5 9t23.5 -13q-39 -92 -69 -199q-29 -92 -53 -198q-10 -12 -27.5 -11.5t-24.5 13.5v57q0 76 -39.5 92.5t-171.5 16.5h-102q-43 0 -54 -8.5t-26 -51.5l-84 -276 q-31 -102 -38 -140t3 -86q20 -43 228 -43q182 0 263 35t173 178q33 20 47 -12q-16 -55 -60 -144t-81 -126q-35 2 -112 3t-116 1q-41 0 -121.5 1t-119.5 1h-242q-109 0 -244 -6q-12 8 -12 25.5zM655 1602q-12 25 13 71q20 39 47 39q18 0 47 -24l250 -201q4 -12 -2 -24.5 t-17 -16.5l-295 125q-35 15 -43 31z" />
<glyph unicode="&#xc9;" horiz-adv-x="1159" d="M4 19.5q0 17.5 10 25.5l72 6q74 6 104.5 47t79.5 197l238 762q47 143 41 184t-86 57l-41 9q-10 12 -7 28.5t19 22.5q74 -4 109 -4q37 -2 119 -2h387q227 0 288 6q-25 -61 -84 -273q-6 -12 -26.5 -11t-24.5 13q14 78 2 122t-74 61q-70 18 -217 18h-120q-39 0 -52.5 -11 t-27.5 -58l-131 -420q-14 -43 -10.5 -51.5t46.5 -8.5h103q147 0 197.5 17.5t85.5 83.5l32 61q6 10 27.5 9t23.5 -13q-39 -92 -69 -199q-29 -92 -53 -198q-10 -12 -27.5 -11.5t-24.5 13.5v57q0 76 -39.5 92.5t-171.5 16.5h-102q-43 0 -54 -8.5t-26 -51.5l-84 -276 q-31 -102 -38 -140t3 -86q20 -43 228 -43q182 0 263 35t173 178q33 20 47 -12q-16 -55 -60 -144t-81 -126q-35 2 -112 3t-116 1q-41 0 -121.5 1t-119.5 1h-242q-109 0 -244 -6q-12 8 -12 25.5zM846 1487l250 201q27 25 47 24q27 0 47 -39q25 -47 12 -71q-10 -16 -43 -31 l-295 -125q-10 4 -16 16.5t-2 24.5z" />
<glyph unicode="&#xca;" horiz-adv-x="1159" d="M4 19.5q0 17.5 10 25.5l72 6q74 6 104.5 47t79.5 197l238 762q47 143 41 184t-86 57l-41 9q-10 12 -7 28.5t19 22.5q74 -4 109 -4q37 -2 119 -2h387q227 0 288 6q-25 -61 -84 -273q-6 -12 -26.5 -11t-24.5 13q14 78 2 122t-74 61q-70 18 -217 18h-120q-39 0 -52.5 -11 t-27.5 -58l-131 -420q-14 -43 -10.5 -51.5t46.5 -8.5h103q147 0 197.5 17.5t85.5 83.5l32 61q6 10 27.5 9t23.5 -13q-39 -92 -69 -199q-29 -92 -53 -198q-10 -12 -27.5 -11.5t-24.5 13.5v57q0 76 -39.5 92.5t-171.5 16.5h-102q-43 0 -54 -8.5t-26 -51.5l-84 -276 q-31 -102 -38 -140t3 -86q20 -43 228 -43q182 0 263 35t173 178q33 20 47 -12q-16 -55 -60 -144t-81 -126q-35 2 -112 3t-116 1q-41 0 -121.5 1t-119.5 1h-242q-109 0 -244 -6q-12 8 -12 25.5zM682 1470l291 224q25 18 43 18q25 0 35 -18l180 -224q0 -12 -11.5 -23 t-21.5 -11l-178 127q-16 16 -31 16q-10 0 -33 -12l-256 -131q-10 0 -16 11t-2 23z" />
<glyph unicode="&#xcb;" horiz-adv-x="1159" d="M4 19.5q0 17.5 10 25.5l72 6q74 6 104.5 47t79.5 197l238 762q47 143 41 184t-86 57l-41 9q-10 12 -7 28.5t19 22.5q74 -4 109 -4q37 -2 119 -2h387q227 0 288 6q-25 -61 -84 -273q-6 -12 -26.5 -11t-24.5 13q14 78 2 122t-74 61q-70 18 -217 18h-120q-39 0 -52.5 -11 t-27.5 -58l-131 -420q-14 -43 -10.5 -51.5t46.5 -8.5h103q147 0 197.5 17.5t85.5 83.5l32 61q6 10 27.5 9t23.5 -13q-39 -92 -69 -199q-29 -92 -53 -198q-10 -12 -27.5 -11.5t-24.5 13.5v57q0 76 -39.5 92.5t-171.5 16.5h-102q-43 0 -54 -8.5t-26 -51.5l-84 -276 q-31 -102 -38 -140t3 -86q20 -43 228 -43q182 0 263 35t173 178q33 20 47 -12q-16 -55 -60 -144t-81 -126q-35 2 -112 3t-116 1q-41 0 -121.5 1t-119.5 1h-242q-109 0 -244 -6q-12 8 -12 25.5zM719 1520q0 47 28.5 77.5t67.5 30.5q33 0 54.5 -23.5t21.5 -54.5 q0 -49 -30 -77.5t-68 -28.5q-35 0 -54.5 20.5t-19.5 55.5zM1075 1520q0 47 29 77.5t67 30.5q33 0 54.5 -23.5t21.5 -54.5q0 -49 -28.5 -77.5t-69.5 -28.5q-35 0 -54.5 20.5t-19.5 55.5z" />
<glyph unicode="&#xcc;" horiz-adv-x="698" d="M14 19.5q0 17.5 11 25.5l63 6q74 8 104.5 48t79.5 196l240 762q27 82 36 117.5t5 66.5t-23.5 40t-64.5 17l-49 9q-10 12 -7 28.5t19 22.5q123 -6 238 -6q98 0 245 6q12 -6 12.5 -24.5t-12.5 -26.5l-55 -9q-86 -14 -113.5 -50t-76.5 -191l-240 -762q-47 -143 -42 -189.5 t81 -54.5l63 -6q8 -10 5 -27.5t-13 -23.5q-152 6 -258 6q-113 0 -235 -6q-13 8 -13 25.5zM426 1602q-12 25 12 71q20 39 47 39q18 0 47 -24l250 -201q4 -12 -2 -24.5t-16 -16.5l-295 125q-35 15 -43 31z" />
<glyph unicode="&#xcd;" horiz-adv-x="698" d="M14 19.5q0 17.5 11 25.5l63 6q74 8 104.5 48t79.5 196l240 762q27 82 36 117.5t5 66.5t-23.5 40t-64.5 17l-49 9q-10 12 -7 28.5t19 22.5q123 -6 238 -6q98 0 245 6q12 -6 12.5 -24.5t-12.5 -26.5l-55 -9q-86 -14 -113.5 -50t-76.5 -191l-240 -762q-47 -143 -42 -189.5 t81 -54.5l63 -6q8 -10 5 -27.5t-13 -23.5q-152 6 -258 6q-113 0 -235 -6q-13 8 -13 25.5zM616 1487l250 201q27 25 47 24q27 0 48 -39q25 -47 12 -71q-10 -16 -43 -31l-295 -125q-10 4 -16.5 16.5t-2.5 24.5z" />
<glyph unicode="&#xce;" horiz-adv-x="698" d="M14 19.5q0 17.5 11 25.5l63 6q74 8 104.5 48t79.5 196l240 762q27 82 36 117.5t5 66.5t-23.5 40t-64.5 17l-49 9q-10 12 -7 28.5t19 22.5q123 -6 238 -6q98 0 245 6q12 -6 12.5 -24.5t-12.5 -26.5l-55 -9q-86 -14 -113.5 -50t-76.5 -191l-240 -762q-47 -143 -42 -189.5 t81 -54.5l63 -6q8 -10 5 -27.5t-13 -23.5q-152 6 -258 6q-113 0 -235 -6q-13 8 -13 25.5zM434 1470l291 224q25 18 43 18q25 0 35 -18l180 -224q0 -12 -11 -23t-22 -11l-178 127q-16 16 -31 16q-12 0 -32 -12l-256 -131q-10 0 -16.5 11t-2.5 23z" />
<glyph unicode="&#xcf;" horiz-adv-x="698" d="M14 19.5q0 17.5 11 25.5l63 6q74 8 104.5 48t79.5 196l240 762q27 82 36 117.5t5 66.5t-23.5 40t-64.5 17l-49 9q-10 12 -7 28.5t19 22.5q123 -6 238 -6q98 0 245 6q12 -6 12.5 -24.5t-12.5 -26.5l-55 -9q-86 -14 -113.5 -50t-76.5 -191l-240 -762q-47 -143 -42 -189.5 t81 -54.5l63 -6q8 -10 5 -27.5t-13 -23.5q-152 6 -258 6q-113 0 -235 -6q-13 8 -13 25.5zM467 1520q0 47 28.5 77.5t67.5 30.5q35 0 55.5 -23.5t20.5 -54.5q0 -49 -29.5 -77.5t-68.5 -28.5q-35 0 -54.5 20.5t-19.5 55.5zM823 1520q0 47 29 77.5t68 30.5q35 0 55 -23.5 t20 -54.5q0 -49 -28.5 -77.5t-69.5 -28.5q-35 0 -54.5 20.5t-19.5 55.5z" />
<glyph unicode="&#xd0;" horiz-adv-x="1525" d="M29 19.5q0 17.5 10 25.5l53 6q72 8 102.5 49t77.5 195l115 373h-219q-12 49 16 71h226l118 385q27 96 20 122t-54 32l-82 10q-10 6 -10.5 23.5t10.5 25.5q154 20 381 21q170 0 302 -34t213 -88t132 -129t70.5 -149.5t19.5 -158.5q0 -195 -87 -356.5t-237 -264.5 q-270 -184 -684 -184q-23 0 -105.5 3t-150.5 3q-119 0 -225 -6q-12 8 -12 25.5zM406 233q-29 -92 12 -129.5t174 -37.5q168 0 304 54t218 135t137.5 181.5t76 187.5t20.5 160.5t-6.5 130t-38 132t-86 126t-160 86t-250.5 35.5q-47 0 -63.5 -14t-32.5 -66l-148 -475h299 q20 -47 -18 -71h-303z" />
<glyph unicode="&#xd1;" horiz-adv-x="1513" d="M2 16.5q-2 16.5 8 28.5l51 6q63 6 101 35q47 35 155 391l162 524q68 217 68 244q0 35 -53 45l-82 17q-12 10 -9 28.5t19 22.5q16 -2 48 -3t48 -1q14 0 52 -1t61 -1h127v-29q0 -47 100 -297l207 -510q84 -201 100 -231q16 0 35 57l162 514q98 311 98 379q0 31 -9 42 t-42 17l-80 13q-8 14 -4 29.5t16 21.5q109 -6 232 -6q106 0 194 6q8 -6 9.5 -23.5t-7.5 -27.5l-47 -9q-84 -14 -106 -36q-53 -53 -168 -412l-148 -459q-70 -215 -129 -422q-16 -16 -49 -12q-57 178 -190 500l-162 393q-20 49 -50 127t-51.5 129t-35.5 82q-10 0 -66 -180 l-159 -533q-27 -88 -86 -340q-8 -33 5 -50t32.5 -23.5t62.5 -10.5l47 -6q8 -10 6 -26.5t-12 -24.5q-92 6 -234 6q-119 0 -215 -6q-10 6 -12 22.5zM913 1427q6 31 28 82.5t42 69.5q35 39 102 39h103q57 0 82.5 13.5t60.5 62.5q23 12 33 -8q-23 -88 -72 -138q-33 -31 -92 -30 h-100q-59 0 -93 -22.5t-63 -76.5q-21 -12 -31 8z" />
<glyph unicode="&#xd2;" horiz-adv-x="1495" d="M209 502q4 197 87 380t241 316q219 186 499 186q215 0 356.5 -145t129.5 -416q-8 -174 -83 -347t-194 -286q-236 -223 -536 -223q-246 0 -376 160t-124 375zM381 424q-6 -166 75 -279.5t267 -113.5q188 0 342 164q131 141 204.5 339.5t80.5 378.5q8 193 -79 300.5 t-243 107.5q-164 0 -307 -123q-127 -106 -229.5 -317t-110.5 -457zM823 1602q-12 25 13 71q20 39 47 39q18 0 47 -24l250 -201q4 -12 -2.5 -24.5t-16.5 -16.5l-295 125q-35 15 -43 31z" />
<glyph unicode="&#xd3;" horiz-adv-x="1495" d="M209 502q4 197 87 380t241 316q219 186 499 186q215 0 356.5 -145t129.5 -416q-8 -174 -83 -347t-194 -286q-236 -223 -536 -223q-246 0 -376 160t-124 375zM381 424q-6 -166 75 -279.5t267 -113.5q188 0 342 164q131 141 204.5 339.5t80.5 378.5q8 193 -79 300.5 t-243 107.5q-164 0 -307 -123q-127 -106 -229.5 -317t-110.5 -457zM983 1487l250 201q29 25 47 24q27 0 47 -39q25 -47 12 -71q-8 -16 -43 -31l-295 -125q-10 4 -16 16.5t-2 24.5z" />
<glyph unicode="&#xd4;" horiz-adv-x="1495" d="M209 502q4 197 87 380t241 316q219 186 499 186q215 0 356.5 -145t129.5 -416q-8 -174 -83 -347t-194 -286q-236 -223 -536 -223q-246 0 -376 160t-124 375zM381 424q-6 -166 75 -279.5t267 -113.5q188 0 342 164q131 141 204.5 339.5t80.5 378.5q8 193 -79 300.5 t-243 107.5q-164 0 -307 -123q-127 -106 -229.5 -317t-110.5 -457zM754 1470l290 224q25 18 43 18q25 0 35 -18l181 -224q0 -12 -11.5 -23t-21.5 -11l-178 127q-16 16 -31 16q-12 0 -33 -12l-256 -131q-10 0 -16 11t-2 23z" />
<glyph unicode="&#xd5;" horiz-adv-x="1495" d="M209 502q4 197 87 380t241 316q219 186 499 186q215 0 356.5 -145t129.5 -416q-8 -174 -83 -347t-194 -286q-236 -223 -536 -223q-246 0 -376 160t-124 375zM381 424q-6 -166 75 -279.5t267 -113.5q188 0 342 164q131 141 204.5 339.5t80.5 378.5q8 193 -79 300.5 t-243 107.5q-164 0 -307 -123q-127 -106 -229.5 -317t-110.5 -457zM846 1427q6 31 27.5 82.5t41.5 69.5q35 39 103 39h102q57 0 83 13.5t61 62.5q23 12 32 -8q-23 -88 -71 -138q-33 -31 -92 -30h-101q-59 0 -93 -22.5t-62 -76.5q-21 -12 -31 8z" />
<glyph unicode="&#xd6;" horiz-adv-x="1495" d="M209 502q4 197 87 380t241 316q219 186 499 186q215 0 356.5 -145t129.5 -416q-8 -174 -83 -347t-194 -286q-236 -223 -536 -223q-246 0 -376 160t-124 375zM381 424q-6 -166 75 -279.5t267 -113.5q188 0 342 164q131 141 204.5 339.5t80.5 378.5q8 193 -79 300.5 t-243 107.5q-164 0 -307 -123q-127 -106 -229.5 -317t-110.5 -457zM803 1520q0 47 28.5 77.5t67.5 30.5q35 0 55.5 -23.5t20.5 -54.5q0 -49 -30 -77.5t-68 -28.5q-35 0 -54.5 20.5t-19.5 55.5zM1159 1520q0 47 29 77.5t67 30.5q35 0 55.5 -23.5t20.5 -54.5 q0 -49 -28.5 -77.5t-69.5 -28.5q-35 0 -54.5 20.5t-19.5 55.5z" />
<glyph unicode="&#xd7;" horiz-adv-x="1146" d="M256 102l301 306l-301 301l76 79l303 -303l305 308l76 -78l-303 -307l303 -306l-76 -79l-305 307l-303 -307z" />
<glyph unicode="&#xd8;" horiz-adv-x="1495" d="M135 -33l176 191q-109 147 -102 344q4 197 87 380t241 316q219 186 499 186q182 0 314 -106l139 156q18 0 34.5 -17.5t18.5 -36.5l-139 -153q131 -147 119 -404q-8 -170 -82 -343t-195 -290q-236 -223 -536 -223q-217 0 -349 131l-174 -188q-20 2 -35.5 19.5t-15.5 37.5z M381 420q-4 -92 20 -166l879 948q-90 119 -252 119q-164 0 -307 -123q-127 -106 -229.5 -317t-110.5 -461zM432 176q80 -145 281 -145q203 0 354 162q264 289 283 749q4 115 -33 193z" />
<glyph unicode="&#xd9;" horiz-adv-x="1503" d="M326 545l159 512q33 106 39 148t-11 63.5t-75 31.5l-51 9q-10 8 -8 25.5t16 23.5q129 -6 240 -6q102 0 252 6q10 -6 10 -23.5t-12 -25.5l-58 -9q-84 -12 -111.5 -49t-76.5 -194l-147 -473q-168 -543 266 -543q342 0 506 508l94 289q61 190 82 317q16 68 4 101.5t-82 43.5 l-57 9q-10 10 -7.5 26.5t15.5 22.5q150 -6 219 -6q102 0 221 6q12 -8 12 -24.5t-12 -24.5l-47 -9q-74 -12 -101.5 -39.5t-60.5 -111.5q-20 -55 -100 -311l-94 -301q-96 -303 -240 -428q-160 -141 -387 -142q-281 0 -383 147.5t-14 430.5zM848 1602q-12 25 12 71q20 39 47 39 q18 0 47 -24l250 -201q4 -12 -2 -24.5t-16 -16.5l-295 125q-35 15 -43 31z" />
<glyph unicode="&#xda;" horiz-adv-x="1503" d="M326 545l159 512q33 106 39 148t-11 63.5t-75 31.5l-51 9q-10 8 -8 25.5t16 23.5q129 -6 240 -6q102 0 252 6q10 -6 10 -23.5t-12 -25.5l-58 -9q-84 -12 -111.5 -49t-76.5 -194l-147 -473q-168 -543 266 -543q342 0 506 508l94 289q61 190 82 317q16 68 4 101.5t-82 43.5 l-57 9q-10 10 -7.5 26.5t15.5 22.5q150 -6 219 -6q102 0 221 6q12 -8 12 -24.5t-12 -24.5l-47 -9q-74 -12 -101.5 -39.5t-60.5 -111.5q-20 -55 -100 -311l-94 -301q-96 -303 -240 -428q-160 -141 -387 -142q-281 0 -383 147.5t-14 430.5zM977 1487l250 201q27 25 47 24 q27 0 47 -39q25 -47 12 -71q-10 -16 -43 -31l-295 -125q-10 4 -16 16.5t-2 24.5z" />
<glyph unicode="&#xdb;" horiz-adv-x="1503" d="M326 545l159 512q33 106 39 148t-11 63.5t-75 31.5l-51 9q-10 8 -8 25.5t16 23.5q129 -6 240 -6q102 0 252 6q10 -6 10 -23.5t-12 -25.5l-58 -9q-84 -12 -111.5 -49t-76.5 -194l-147 -473q-168 -543 266 -543q342 0 506 508l94 289q61 190 82 317q16 68 4 101.5t-82 43.5 l-57 9q-10 10 -7.5 26.5t15.5 22.5q150 -6 219 -6q102 0 221 6q12 -8 12 -24.5t-12 -24.5l-47 -9q-74 -12 -101.5 -39.5t-60.5 -111.5q-20 -55 -100 -311l-94 -301q-96 -303 -240 -428q-160 -141 -387 -142q-281 0 -383 147.5t-14 430.5zM840 1470l290 224q25 18 44 18 q25 0 34 -18l181 -224q0 -12 -11.5 -23t-21.5 -11l-178 127q-16 16 -31 16q-12 0 -33 -12l-256 -131q-10 0 -16 11t-2 23z" />
<glyph unicode="&#xdc;" horiz-adv-x="1503" d="M326 545l159 512q33 106 39 148t-11 63.5t-75 31.5l-51 9q-10 8 -8 25.5t16 23.5q129 -6 240 -6q102 0 252 6q10 -6 10 -23.5t-12 -25.5l-58 -9q-84 -12 -111.5 -49t-76.5 -194l-147 -473q-168 -543 266 -543q342 0 506 508l94 289q61 190 82 317q16 68 4 101.5t-82 43.5 l-57 9q-10 10 -7.5 26.5t15.5 22.5q150 -6 219 -6q102 0 221 6q12 -8 12 -24.5t-12 -24.5l-47 -9q-74 -12 -101.5 -39.5t-60.5 -111.5q-20 -55 -100 -311l-94 -301q-96 -303 -240 -428q-160 -141 -387 -142q-281 0 -383 147.5t-14 430.5zM881 1520q0 47 28.5 77.5t67.5 30.5 q35 0 55.5 -23.5t20.5 -54.5q0 -49 -30 -77.5t-69 -28.5q-35 0 -54 20.5t-19 55.5zM1237 1520q0 47 28.5 77.5t67.5 30.5q35 0 55.5 -23.5t20.5 -54.5q0 -49 -28.5 -77.5t-69.5 -28.5q-35 0 -54.5 20.5t-19.5 55.5z" />
<glyph unicode="&#xdd;" horiz-adv-x="1155" d="M252 19.5q0 17.5 10 25.5l74 6q72 6 101.5 46t82.5 198l41 121q29 82 32 124t-18 138l-102 444q-23 100 -43 134t-74 42l-51 9q-8 10 -6 27.5t12 23.5q115 -6 217 -6q121 0 220 6q10 -8 10 -24.5t-10 -26.5l-60 -9q-57 -8 -73.5 -30.5t-2.5 -81.5l105 -481 q8 -39 19.5 -39t41.5 36l252 304q197 242 197 258q0 25 -60 34l-51 9q-10 8 -9 25.5t13 25.5q121 -6 213 -6q84 0 185 6q10 -6 10 -24.5t-10 -26.5l-43 -9q-82 -16 -115 -47q-84 -76 -201 -211l-233 -274q-109 -127 -141.5 -179t-69.5 -169l-39 -123q-35 -111 -42 -156 t9 -64.5t72 -23.5l73 -6q10 -8 7.5 -27.5t-13.5 -23.5q-172 6 -274 6q-106 0 -244 -6q-12 8 -12 25.5zM844 1487l250 201q29 25 47 24q27 0 47 -39q25 -47 12 -71q-8 -16 -43 -31l-295 -125q-10 4 -16 16.5t-2 24.5z" />
<glyph unicode="&#xde;" horiz-adv-x="1146" d="M16 19.5q0 17.5 13 25.5l59 6q74 8 103.5 48t78.5 196l240 762q27 82 36 117.5t5 66.5t-23.5 40t-64.5 17l-49 9q-25 35 12 51q123 -6 238 -6q127 0 245 6q10 -6 10.5 -24.5t-10.5 -26.5l-45 -9q-92 -16 -121.5 -52t-74.5 -185h73q242 0 351 -90q100 -82 100 -219 q0 -109 -57.5 -192t-145.5 -126t-181 -62.5t-177 -13.5q-12 4 -14.5 18.5t8.5 22.5q88 16 153 39q100 37 170 123t70 197q0 240 -268 239q-72 0 -94.5 -12t-34.5 -53l-197 -637q-47 -143 -42 -191.5t81 -52.5l92 -6q10 -10 7 -27.5t-13 -23.5q-197 6 -289 6q-115 0 -231 -6 q-13 8 -13 25.5z" />
<glyph unicode="&#xdf;" horiz-adv-x="952" d="M-289 -440q0 53 49 82q23 12 52 -29q20 -31 56 -55.5t71 -24.5q45 0 77 55q47 80 113 457q88 504 190 791q125 348 390 524q156 104 344 104q88 0 154.5 -55t66.5 -131q0 -53 -46 -107.5t-91 -84t-132 -77.5t-104 -59q-145 -88 -145 -213q0 -70 63.5 -229.5t63.5 -231.5 q0 -125 -95 -213q-37 -37 -91 -64.5t-83 -27.5q-57 0 -93 38t-36 75t17 59q18 27 41 4q72 -72 129 -71q37 0 70.5 29.5t33.5 82.5q0 35 -76 207q-78 176 -77 269q0 109 72.5 189.5t260.5 205.5q80 53 121 112.5t41 92.5q0 61 -44 93t-118 32q-104 0 -205.5 -89.5t-173 -214 t-122.5 -272.5q-76 -213 -157 -609.5t-122 -498.5q-43 -106 -131 -181t-192 -75q-72 0 -107 37t-35 74z" />
<glyph unicode="&#xe0;" horiz-adv-x="909" d="M41 86q0 49 45 161.5t135 235.5q139 190 271 265q104 59 184 59q25 0 49 -12q27 -12 41 -43l57 131q27 12 58.5 0.5t42.5 -31.5q-174 -430 -275 -715q-16 -47 15 -47q55 0 210 137q29 0 29 -26q-70 -92 -167 -161t-177 -69q-31 0 -45 18.5t-14 37.5q0 20 20 79l68 185 l-6 2q-106 -133 -241.5 -227.5t-209.5 -94.5q-41 0 -65.5 35t-24.5 80zM211 119q0 -39 31 -39q53 0 198 133q207 193 275 442q-27 74 -103 74q-57 0 -145 -80q-96 -86 -176 -252.5t-80 -277.5zM479 1237q0 25 35 47q37 27 64 27q25 0 38 -45l107 -318q0 -10 -13.5 -17 t-23.5 -5l-178 254q-29 41 -29 57z" />
<glyph unicode="&#xe1;" horiz-adv-x="909" d="M41 86q0 49 45 161.5t135 235.5q139 190 271 265q104 59 184 59q25 0 49 -12q27 -12 41 -43l57 131q27 12 58.5 0.5t42.5 -31.5q-174 -430 -275 -715q-16 -47 15 -47q55 0 210 137q29 0 29 -26q-70 -92 -167 -161t-177 -69q-31 0 -45 18.5t-14 37.5q0 20 20 79l68 185 l-6 2q-106 -133 -241.5 -227.5t-209.5 -94.5q-41 0 -65.5 35t-24.5 80zM211 119q0 -39 31 -39q53 0 198 133q207 193 275 442q-27 74 -103 74q-57 0 -145 -80q-96 -86 -176 -252.5t-80 -277.5zM678 965l192 292q27 43 50 41q27 0 57.5 -30.5t26.5 -53.5q0 -20 -35 -49 l-258 -227q-12 0 -22.5 8.5t-10.5 18.5z" />
<glyph unicode="&#xe2;" horiz-adv-x="909" d="M41 86q0 49 45 161.5t135 235.5q139 190 271 265q104 59 184 59q25 0 49 -12q27 -12 41 -43l57 131q27 12 58.5 0.5t42.5 -31.5q-174 -430 -275 -715q-16 -47 15 -47q55 0 210 137q29 0 29 -26q-70 -92 -167 -161t-177 -69q-31 0 -45 18.5t-14 37.5q0 20 20 79l68 185 l-6 2q-106 -133 -241.5 -227.5t-209.5 -94.5q-41 0 -65.5 35t-24.5 80zM211 119q0 -39 31 -39q53 0 198 133q207 193 275 442q-27 74 -103 74q-57 0 -145 -80q-96 -86 -176 -252.5t-80 -277.5zM469 965l250 335q25 31 43 31q25 0 35 -39l77 -331q-12 -27 -43 -21l-86 188 q-12 27 -18 27q-10 0 -33 -22l-190 -197q-12 -2 -23.5 6.5t-11.5 22.5z" />
<glyph unicode="&#xe3;" horiz-adv-x="909" d="M41 86q0 49 45 161.5t135 235.5q139 190 271 265q104 59 184 59q25 0 49 -12q27 -12 41 -43l57 131q27 12 58.5 0.5t42.5 -31.5q-174 -430 -275 -715q-16 -47 15 -47q55 0 210 137q29 0 29 -26q-70 -92 -167 -161t-177 -69q-31 0 -45 18.5t-14 37.5q0 20 20 79l68 185 l-6 2q-106 -133 -241.5 -227.5t-209.5 -94.5q-41 0 -65.5 35t-24.5 80zM211 119q0 -39 31 -39q53 0 198 133q207 193 275 442q-27 74 -103 74q-57 0 -145 -80q-96 -86 -176 -252.5t-80 -277.5zM498 969q6 31 27.5 82t41.5 69q37 43 103 43h102q59 0 85 12.5t58 59.5 q23 12 33 -8q-23 -88 -71 -137q-33 -31 -93 -31h-100q-59 0 -93 -22.5t-63 -75.5q-20 -12 -30 8z" />
<glyph unicode="&#xe4;" horiz-adv-x="909" d="M41 86q0 49 45 161.5t135 235.5q139 190 271 265q104 59 184 59q25 0 49 -12q27 -12 41 -43l57 131q27 12 58.5 0.5t42.5 -31.5q-174 -430 -275 -715q-16 -47 15 -47q55 0 210 137q29 0 29 -26q-70 -92 -167 -161t-177 -69q-31 0 -45 18.5t-14 37.5q0 20 20 79l68 185 l-6 2q-106 -133 -241.5 -227.5t-209.5 -94.5q-41 0 -65.5 35t-24.5 80zM211 119q0 -39 31 -39q53 0 198 133q207 193 275 442q-27 74 -103 74q-57 0 -145 -80q-96 -86 -176 -252.5t-80 -277.5zM467 1120q0 47 29.5 79t68.5 32q35 0 55.5 -23.5t20.5 -54.5q0 -51 -29.5 -81 t-68.5 -30q-35 0 -55.5 21.5t-20.5 56.5zM784 1120q0 47 30 79t69 32q35 0 55 -23.5t20 -54.5q0 -51 -29.5 -81t-68.5 -30q-35 0 -55.5 21.5t-20.5 56.5z" />
<glyph unicode="&#xe5;" horiz-adv-x="909" d="M41 86q0 49 45 161.5t135 235.5q139 190 271 265q104 59 184 59q25 0 49 -12q27 -12 41 -43l57 131q27 12 58.5 0.5t42.5 -31.5q-174 -430 -275 -715q-16 -47 15 -47q55 0 210 137q29 0 29 -26q-70 -92 -167 -161t-177 -69q-31 0 -45 18.5t-14 37.5q0 20 20 79l68 185 l-6 2q-106 -133 -241.5 -227.5t-209.5 -94.5q-41 0 -65.5 35t-24.5 80zM211 119q0 -39 31 -39q53 0 198 133q207 193 275 442q-27 74 -103 74q-57 0 -145 -80q-96 -86 -176 -252.5t-80 -277.5zM543 1140.5q0 67.5 50 117t124 49.5t124 -49.5t50 -117t-49 -116.5t-125 -49 t-125 49t-49 116.5zM625 1141q0 -47 26.5 -78t65.5 -31q41 0 66.5 31t25.5 78t-26.5 76.5t-65.5 29.5t-65.5 -30.5t-26.5 -75.5z" />
<glyph unicode="&#xe6;" horiz-adv-x="978" d="M41 80q0 76 58.5 183.5t123.5 182.5q129 145 348 279q6 4 43 27.5t53.5 32t48.5 23.5t61.5 21.5t60.5 6.5q76 0 113.5 -40t37.5 -89q0 -90 -90 -183.5t-299 -255.5q0 -100 38 -145t89 -45q33 0 65.5 21.5t47 38t47.5 57.5q35 10 41 -25q-63 -111 -142 -155t-133 -44 q-135 0 -178 176q-84 -78 -176 -127t-145 -49q-43 0 -78 27t-35 82zM203 139q0 -57 45 -57q86 0 215 129q-10 223 90 430l-4 4q-139 -80 -242.5 -243t-103.5 -263zM596 334q119 109 189.5 213t70.5 162q0 66 -65 65q-82 0 -138.5 -142t-56.5 -298z" />
<glyph unicode="&#xe7;" horiz-adv-x="692" d="M49 -379q0 16 14.5 32.5t36.5 16.5q20 0 50 -28q31 -31 43 -31q20 0 38.5 15.5t18.5 47.5q0 78 -109 127v9l119 163q-6 -2 -14 -2q-66 0 -110 53.5t-44 163.5q0 113 67.5 264.5t192.5 264.5q131 119 266 119q74 0 113 -35t39 -86q0 -53 -36 -75t-64 -22q-35 0 -41 37 q0 4 -2 21.5t-3 24t-4.5 20.5t-8.5 19t-12 13.5t-17.5 11.5t-24.5 3q-80 0 -172 -137q-53 -80 -93 -196t-44 -228q-6 -133 88 -133q86 0 221 125q14 2 22.5 -8.5t4.5 -26.5q-102 -133 -244 -176l-66 -88q-23 -27 11 -54q76 -61 75 -133q0 -63 -65.5 -110t-142.5 -47 q-103 -1 -103 65z" />
<glyph unicode="&#xe8;" horiz-adv-x="708" d="M90 186q0 117 77 276t228 275q127 98 246 99q57 0 93 -39t36 -84q0 -111 -129 -193t-369 -147q-29 -70 -28 -183q0 -51 27.5 -83.5t70.5 -32.5q51 0 94 25.5t121 93.5q14 0 22.5 -10.5t4.5 -24.5q-152 -186 -328 -187q-84 0 -125 64.5t-41 150.5zM293 434 q98 31 156.5 63.5t117.5 88.5q41 39 60.5 79t19.5 60q0 47 -47 47q-66 0 -156 -98q-94 -103 -151 -240zM418 1243q0 25 35 47q37 27 63 27q25 0 39 -45l104 -322q0 -12 -13 -18t-23 -4l-177 258q-28 41 -28 57z" />
<glyph unicode="&#xe9;" horiz-adv-x="708" d="M90 186q0 117 77 276t228 275q127 98 246 99q57 0 93 -39t36 -84q0 -111 -129 -193t-369 -147q-29 -70 -28 -183q0 -51 27.5 -83.5t70.5 -32.5q51 0 94 25.5t121 93.5q14 0 22.5 -10.5t4.5 -24.5q-152 -186 -328 -187q-84 0 -125 64.5t-41 150.5zM293 434 q98 31 156.5 63.5t117.5 88.5q41 39 60.5 79t19.5 60q0 47 -47 47q-66 0 -156 -98q-94 -103 -151 -240zM535 961l192 292q27 43 49 41q27 0 57.5 -30.5t26.5 -53.5q0 -20 -35 -49l-258 -227q-12 0 -22 8.5t-10 18.5z" />
<glyph unicode="&#xea;" horiz-adv-x="708" d="M90 186q0 117 77 276t228 275q127 98 246 99q57 0 93 -39t36 -84q0 -111 -129 -193t-369 -147q-29 -70 -28 -183q0 -51 27.5 -83.5t70.5 -32.5q51 0 94 25.5t121 93.5q14 0 22.5 -10.5t4.5 -24.5q-152 -186 -328 -187q-84 0 -125 64.5t-41 150.5zM293 434 q98 31 156.5 63.5t117.5 88.5q41 39 60.5 79t19.5 60q0 47 -47 47q-66 0 -156 -98q-94 -103 -151 -240zM393 965l250 335q25 31 43 31q25 0 35 -39l78 -331q-12 -27 -43 -21l-86 188q-12 27 -19 27q-10 0 -33 -22l-190 -197q-12 -2 -23.5 6.5t-11.5 22.5z" />
<glyph unicode="&#xeb;" horiz-adv-x="708" d="M90 186q0 117 77 276t228 275q127 98 246 99q57 0 93 -39t36 -84q0 -111 -129 -193t-369 -147q-29 -70 -28 -183q0 -51 27.5 -83.5t70.5 -32.5q51 0 94 25.5t121 93.5q14 0 22.5 -10.5t4.5 -24.5q-152 -186 -328 -187q-84 0 -125 64.5t-41 150.5zM293 434 q98 31 156.5 63.5t117.5 88.5q41 39 60.5 79t19.5 60q0 47 -47 47q-66 0 -156 -98q-94 -103 -151 -240zM369 1118q0 47 29.5 79t68.5 32q35 0 55.5 -23.5t20.5 -54.5q0 -51 -30 -81t-69 -30q-35 0 -55 21.5t-20 56.5zM686 1118q0 47 29.5 79t68.5 32q35 0 55.5 -23.5 t20.5 -54.5q0 -51 -29.5 -81t-68.5 -30q-35 0 -55.5 21.5t-20.5 56.5z" />
<glyph unicode="&#xec;" horiz-adv-x="569" d="M106 45l261 621q18 39 -5 39q-37 0 -169 -109q-14 2 -22.5 12t-4.5 23q78 90 179 147.5t159 57.5q12 0 33 -21q18 -16 -13 -90l-243 -582q-18 -45 6 -45q27 0 94.5 47.5t118.5 104.5q31 -4 30 -35q-31 -57 -159.5 -150.5t-223.5 -93.5q-16 0 -32 19q-23 24 -9 55z M319 1237q0 25 35 47q37 27 64 27q25 0 39 -45l94 -322q0 -10 -13.5 -17t-23.5 -5l-166 258q-29 41 -29 57z" />
<glyph unicode="&#xed;" horiz-adv-x="569" d="M106 45l261 621q18 39 -5 39q-37 0 -169 -109q-14 2 -22.5 12t-4.5 23q78 90 179 147.5t159 57.5q12 0 33 -21q18 -16 -13 -90l-243 -582q-18 -45 6 -45q27 0 94.5 47.5t118.5 104.5q31 -4 30 -35q-31 -57 -159.5 -150.5t-223.5 -93.5q-16 0 -32 19q-23 24 -9 55z M444 958l193 293q27 43 49 41q27 0 57.5 -30.5t26.5 -53.5q0 -20 -35 -49l-258 -227q-12 0 -22.5 8t-10.5 18z" />
<glyph unicode="&#xee;" horiz-adv-x="569" d="M106 45l261 621q18 39 -5 39q-37 0 -169 -109q-14 2 -22.5 12t-4.5 23q78 90 179 147.5t159 57.5q12 0 33 -21q18 -16 -13 -90l-243 -582q-18 -45 6 -45q27 0 94.5 47.5t118.5 104.5q31 -4 30 -35q-31 -57 -159.5 -150.5t-223.5 -93.5q-16 0 -32 19q-23 24 -9 55z M281 958l249 336q25 31 43 31q25 0 35 -39l78 -332q-12 -27 -43 -20l-86 188q-12 27 -18 27q-10 0 -33 -23l-191 -196q-12 -2 -23 6t-11 22z" />
<glyph unicode="&#xef;" horiz-adv-x="569" d="M106 45l261 621q18 39 -5 39q-37 0 -169 -109q-14 2 -22.5 12t-4.5 23q78 90 179 147.5t159 57.5q12 0 33 -21q18 -16 -13 -90l-243 -582q-18 -45 6 -45q27 0 94.5 47.5t118.5 104.5q31 -4 30 -35q-31 -57 -159.5 -150.5t-223.5 -93.5q-16 0 -32 19q-23 24 -9 55z M307 1118q0 47 30 79t69 32q35 0 55 -23.5t20 -54.5q0 -51 -29.5 -81t-68.5 -30q-35 0 -55.5 21.5t-20.5 56.5zM625 1118q0 47 29.5 79t68.5 32q35 0 55.5 -23.5t20.5 -54.5q0 -51 -30 -81t-69 -30q-35 0 -55 21.5t-20 56.5z" />
<glyph unicode="&#xf0;" horiz-adv-x="827" d="M96 244q6 102 66.5 232t156.5 226q135 133 273 134q49 0 94 -23q10 129 -41 268l-256 -129q-16 10 -22.5 31t2.5 35l254 129q-31 94 -91.5 175t-142.5 108q-6 25 19 34q217 -55 319 -268l260 131q20 -8 26.5 -27.5t-3.5 -37.5l-252 -127q80 -193 73 -394 q-4 -176 -65 -344t-174 -284q-137 -141 -291 -142q-100 0 -156.5 72t-48.5 201zM233 164q-4 -55 18.5 -93t65.5 -38q82 0 162 106q66 88 128.5 252t66.5 248q8 135 -74 135q-88 0 -162 -98q-84 -113 -141.5 -267.5t-63.5 -244.5z" />
<glyph unicode="&#xf1;" horiz-adv-x="1026" d="M123 25q100 260 237 645q18 47 -6 47q-70 0 -186 -103q-29 0 -25 31q59 82 144.5 136.5t161.5 54.5q37 0 52 -25t1 -59l-140 -359l7 -4q123 186 259 316.5t242 130.5q115 0 115 -111q0 -49 -33 -143q-16 -45 -62 -154t-86 -202t-42 -97q-16 -39 4 -39q27 0 88 43t104 96 q33 4 33 -28q-57 -96 -161.5 -163t-190.5 -67q-14 0 -31.5 16.5t-17.5 35t49 135.5q16 35 77.5 190.5t88.5 212.5q43 96 43 150q0 49 -33 49q-37 0 -118 -69.5t-165 -174.5q-51 -63 -107 -154.5t-90 -151.5t-116 -214q-14 -25 -37 -25q-16 0 -30.5 3t-25.5 17t-3 34z M518 979q6 31 27.5 82t42.5 69q37 43 102 44h103q59 0 84.5 12t58.5 59q23 12 33 -8q-23 -88 -72 -137q-33 -31 -92 -31h-100q-59 0 -93 -22.5t-63 -75.5q-21 -12 -31 8z" />
<glyph unicode="&#xf2;" horiz-adv-x="831" d="M96 244q6 104 65.5 234t157.5 224q139 133 283 134q106 0 160.5 -72t48.5 -186q-6 -100 -59.5 -229.5t-157.5 -235.5q-137 -141 -293 -142q-100 0 -156.5 72t-48.5 201zM233 164q-4 -55 18.5 -93t65.5 -38q82 0 162 106q66 88 126.5 252t64.5 248q4 135 -82 135 q-76 0 -150 -98q-84 -113 -141.5 -267.5t-63.5 -244.5zM440 1237q0 25 35 47q37 27 64 27q25 0 39 -45l100 -318q0 -10 -13.5 -17t-23.5 -5l-172 254q-29 41 -29 57z" />
<glyph unicode="&#xf3;" horiz-adv-x="831" d="M96 244q6 104 65.5 234t157.5 224q139 133 283 134q106 0 160.5 -72t48.5 -186q-6 -100 -59.5 -229.5t-157.5 -235.5q-137 -141 -293 -142q-100 0 -156.5 72t-48.5 201zM233 164q-4 -55 18.5 -93t65.5 -38q82 0 162 106q66 88 126.5 252t64.5 248q4 135 -82 135 q-76 0 -150 -98q-84 -113 -141.5 -267.5t-63.5 -244.5zM559 952l193 293q27 43 49 41q27 0 57.5 -30.5t26.5 -53.5q0 -20 -35 -49l-258 -227q-12 0 -22.5 8t-10.5 18z" />
<glyph unicode="&#xf4;" horiz-adv-x="831" d="M96 244q6 104 65.5 234t157.5 224q139 133 283 134q106 0 160.5 -72t48.5 -186q-6 -100 -59.5 -229.5t-157.5 -235.5q-137 -141 -293 -142q-100 0 -156.5 72t-48.5 201zM233 164q-4 -55 18.5 -93t65.5 -38q82 0 162 106q66 88 126.5 252t64.5 248q4 135 -82 135 q-76 0 -150 -98q-84 -113 -141.5 -267.5t-63.5 -244.5zM401 965l250 335q25 31 43 31q25 0 35 -39l78 -331q-12 -27 -43 -21l-80 199q-10 27 -18 26q-10 0 -33 -22l-197 -207q-12 -2 -23.5 6.5t-11.5 22.5z" />
<glyph unicode="&#xf5;" horiz-adv-x="831" d="M96 244q6 104 65.5 234t157.5 224q139 133 283 134q106 0 160.5 -72t48.5 -186q-6 -100 -59.5 -229.5t-157.5 -235.5q-137 -141 -293 -142q-100 0 -156.5 72t-48.5 201zM233 164q-4 -55 18.5 -93t65.5 -38q82 0 162 106q66 88 126.5 252t64.5 248q4 135 -82 135 q-76 0 -150 -98q-84 -113 -141.5 -267.5t-63.5 -244.5zM444 979q6 31 28 82t42 69q37 43 102 44h103q59 0 84.5 12t58.5 59q23 12 33 -8q-23 -88 -72 -137q-33 -31 -92 -31h-100q-59 0 -93 -22.5t-63 -75.5q-21 -12 -31 8z" />
<glyph unicode="&#xf6;" horiz-adv-x="831" d="M96 244q6 104 65.5 234t157.5 224q139 133 283 134q106 0 160.5 -72t48.5 -186q-6 -100 -59.5 -229.5t-157.5 -235.5q-137 -141 -293 -142q-100 0 -156.5 72t-48.5 201zM233 164q-4 -55 18.5 -93t65.5 -38q82 0 162 106q66 88 126.5 252t64.5 248q4 135 -82 135 q-76 0 -150 -98q-84 -113 -141.5 -267.5t-63.5 -244.5zM426 1120q0 47 29.5 79t68.5 32q35 0 55.5 -23.5t20.5 -54.5q0 -51 -29.5 -81t-68.5 -30q-35 0 -55.5 21.5t-20.5 56.5zM743 1120q0 47 30 79t69 32q35 0 55.5 -23.5t20.5 -54.5q0 -51 -30 -81t-69 -30 q-35 0 -55.5 21.5t-20.5 56.5z" />
<glyph unicode="&#xf7;" horiz-adv-x="1146" d="M242 371v100h788v-100h-788zM539 172q0 37 26.5 63.5t65.5 26.5q35 0 62.5 -26.5t27.5 -63.5t-26.5 -64.5t-63.5 -27.5q-39 0 -65.5 26.5t-26.5 65.5zM539 672q0 37 26.5 63.5t65.5 26.5q35 0 62.5 -26.5t27.5 -63.5t-26.5 -64.5t-63.5 -27.5q-39 0 -65.5 26.5 t-26.5 65.5z" />
<glyph unicode="&#xf8;" horiz-adv-x="831" d="M96 244q6 102 66.5 232t156.5 226q139 133 285 134q51 0 82 -15l64 97q43 8 53 -27l-66 -103q80 -63 74 -210q-6 -100 -58.5 -229.5t-156.5 -235.5q-137 -141 -293 -142q-45 0 -88 17l-61 -97q-14 -6 -31 4.5t-21 26.5l64 98q-82 72 -70 224zM219 164q0 -29 8 -49l4 -4 l412 645q-16 18 -55 18q-80 0 -160 -100q-88 -111 -148.5 -266.5t-60.5 -243.5zM260 55q27 -23 59 -22q92 0 175 106q68 88 130 252t62 248q0 23 -6 53h-8z" />
<glyph unicode="&#xf9;" horiz-adv-x="1015" d="M119 592q43 68 165 156t189 88q23 0 46.5 -18.5t15.5 -43.5l-230 -598q-27 -70 14 -70q45 0 220 170q53 53 100 113t89 127.5t66.5 110.5t60.5 112.5t44 83.5q31 6 62.5 -6t37.5 -31q-4 -10 -48 -124.5t-98 -258t-93 -251.5q-20 -51 8 -52q27 0 91.5 53.5t109.5 106.5 q35 8 37 -29q-43 -80 -162 -170t-197 -90q-25 0 -42 23.5t-9 48.5l139 375l-4 2q-131 -164 -283.5 -306.5t-228.5 -142.5q-59 0 -73.5 53.5t14.5 120.5l188 498q23 59 0 59q-27 0 -88 -47t-106 -94q-14 -2 -25.5 7.5t-9.5 23.5zM524 1237q0 25 35 47q37 27 64 27 q25 0 39 -45l104 -320q0 -12 -13.5 -18t-23.5 -4l-176 256q-29 41 -29 57z" />
<glyph unicode="&#xfa;" horiz-adv-x="1015" d="M119 592q43 68 165 156t189 88q23 0 46.5 -18.5t15.5 -43.5l-230 -598q-27 -70 14 -70q45 0 220 170q53 53 100 113t89 127.5t66.5 110.5t60.5 112.5t44 83.5q31 6 62.5 -6t37.5 -31q-4 -10 -48 -124.5t-98 -258t-93 -251.5q-20 -51 8 -52q27 0 91.5 53.5t109.5 106.5 q35 8 37 -29q-43 -80 -162 -170t-197 -90q-25 0 -42 23.5t-9 48.5l139 375l-4 2q-131 -164 -283.5 -306.5t-228.5 -142.5q-59 0 -73.5 53.5t14.5 120.5l188 498q23 59 0 59q-27 0 -88 -47t-106 -94q-14 -2 -25.5 7.5t-9.5 23.5zM659 952l193 293q27 43 49 41 q27 0 57.5 -30.5t26.5 -53.5q0 -20 -35 -49l-258 -227q-12 0 -22.5 8t-10.5 18z" />
<glyph unicode="&#xfb;" horiz-adv-x="1015" d="M119 592q43 68 165 156t189 88q23 0 46.5 -18.5t15.5 -43.5l-230 -598q-27 -70 14 -70q45 0 220 170q53 53 100 113t89 127.5t66.5 110.5t60.5 112.5t44 83.5q31 6 62.5 -6t37.5 -31q-4 -10 -48 -124.5t-98 -258t-93 -251.5q-20 -51 8 -52q27 0 91.5 53.5t109.5 106.5 q35 8 37 -29q-43 -80 -162 -170t-197 -90q-25 0 -42 23.5t-9 48.5l139 375l-4 2q-131 -164 -283.5 -306.5t-228.5 -142.5q-59 0 -73.5 53.5t14.5 120.5l188 498q23 59 0 59q-27 0 -88 -47t-106 -94q-14 -2 -25.5 7.5t-9.5 23.5zM516 971l250 336q25 31 43 30q25 0 35 -39 l78 -331q-12 -27 -43 -21l-86 189q-12 27 -19 26q-10 0 -33 -22l-190 -197q-12 -2 -23.5 6.5t-11.5 22.5z" />
<glyph unicode="&#xfc;" horiz-adv-x="1015" d="M119 592q43 68 165 156t189 88q23 0 46.5 -18.5t15.5 -43.5l-230 -598q-27 -70 14 -70q45 0 220 170q53 53 100 113t89 127.5t66.5 110.5t60.5 112.5t44 83.5q31 6 62.5 -6t37.5 -31q-4 -10 -48 -124.5t-98 -258t-93 -251.5q-20 -51 8 -52q27 0 91.5 53.5t109.5 106.5 q35 8 37 -29q-43 -80 -162 -170t-197 -90q-25 0 -42 23.5t-9 48.5l139 375l-4 2q-131 -164 -283.5 -306.5t-228.5 -142.5q-59 0 -73.5 53.5t14.5 120.5l188 498q23 59 0 59q-27 0 -88 -47t-106 -94q-14 -2 -25.5 7.5t-9.5 23.5zM500 1118q0 47 29.5 79t68.5 32 q35 0 55.5 -23.5t20.5 -54.5q0 -51 -30 -81t-69 -30q-35 0 -55 21.5t-20 56.5zM817 1118q0 47 30 79t68 32q35 0 55.5 -23.5t20.5 -54.5q0 -51 -29.5 -81t-68.5 -30q-35 0 -55.5 21.5t-20.5 56.5z" />
<glyph unicode="&#xfd;" horiz-adv-x="749" d="M-205 -457q0 39 23.5 63.5t58.5 24.5q33 0 55 -32q23 -37 58 -37q43 0 112 57q43 37 98.5 125t82.5 182q45 162 41 467q-6 307 -78 307q-14 0 -28.5 -10t-31 -36.5t-28 -47t-31.5 -61.5q-31 -8 -39 26q35 111 98.5 188t135.5 77q115 0 124 -349q4 -246 -30 -450h8 q96 143 172 352q29 80 51.5 204t24.5 175q4 63 49 63q29 0 57 -18q18 -12 19 -41q2 -59 -57.5 -240.5t-180.5 -384.5q-6 -10 -35.5 -60t-37 -63.5t-34 -56.5t-39 -61.5t-39 -56t-47 -63.5t-48 -60.5t-58.5 -69.5q-180 -207 -319 -207q-47 0 -77 27.5t-30 66.5zM498 952 l192 293q27 43 49 41q27 0 57.5 -30.5t26.5 -53.5q0 -20 -35 -49l-258 -227q-12 0 -22 8t-10 18z" />
<glyph unicode="&#xfe;" horiz-adv-x="917" d="M-207 -506l45 8q16 2 30.5 7.5t26 8.5t21.5 11t16.5 11t14.5 14.5t11 14.5t9 19.5t7 19.5t8.5 22.5t9.5 23.5l381 1069q-88 -25 -207 -84q-12 2 -18.5 13.5t-2.5 25.5q98 70 254 115l101 280q35 109 33.5 137.5t-27.5 40.5l-37 17q-8 6 -8 17t8 15q129 51 258 62l10 -12 q-10 -31 -25.5 -70t-44 -114.5t-61.5 -168.5l-71 -194q6 0 30.5 2t46.5 2q59 0 115.5 -15.5t110 -71.5t53.5 -147q0 -258 -270 -485q-57 -49 -132 -77.5t-110 -34t-51 -5.5q-20 0 -64 13q-23 -6 -33 -37l-84 -242q-41 -119 -37.5 -148.5t54.5 -37.5l84 -13q23 -31 -8 -45 q-35 0 -447 -12q-27 22 0 45zM305 143q-12 -33 2 -55q29 -47 76 -47q37 0 104.5 39t124.5 127q121 186 121 385q0 74 -46 113.5t-116 39.5q-25 0 -53 -4z" />
<glyph unicode="&#xff;" horiz-adv-x="749" d="M-205 -457q0 39 23.5 63.5t58.5 24.5q33 0 55 -32q23 -37 58 -37q43 0 112 57q43 37 98.5 125t82.5 182q45 162 41 467q-6 307 -78 307q-14 0 -28.5 -10t-31 -36.5t-28 -47t-31.5 -61.5q-31 -8 -39 26q35 111 98.5 188t135.5 77q115 0 124 -349q4 -246 -30 -450h8 q96 143 172 352q29 80 51.5 204t24.5 175q4 63 49 63q29 0 57 -18q18 -12 19 -41q2 -59 -57.5 -240.5t-180.5 -384.5q-6 -10 -35.5 -60t-37 -63.5t-34 -56.5t-39 -61.5t-39 -56t-47 -63.5t-48 -60.5t-58.5 -69.5q-180 -207 -319 -207q-47 0 -77 27.5t-30 66.5zM324 1118 q0 47 29.5 79t68.5 32q35 0 55.5 -23.5t20.5 -54.5q0 -51 -30 -81t-69 -30q-35 0 -55 21.5t-20 56.5zM641 1118q0 47 29.5 79t68.5 32q35 0 55.5 -23.5t20.5 -54.5q0 -51 -29.5 -81t-68.5 -30q-35 0 -55.5 21.5t-20.5 56.5z" />
<glyph unicode="&#x152;" horiz-adv-x="2004" d="M215 571q10 174 105.5 341t257.5 276q258 172 622 172q80 0 207 -4t184 -4h303q227 0 289 6q-25 -61 -84 -273q-6 -12 -26.5 -11t-24.5 13q14 78 2 122t-74 61q-72 18 -217 18h-123q-39 0 -51 -11t-26 -58l-132 -420q-14 -43 -10 -51.5t47 -8.5h103q147 0 197.5 17.5 t84.5 83.5l33 61q6 10 27.5 9t23.5 -13q-39 -92 -69 -199q-29 -92 -54 -198q-10 -12 -27.5 -11.5t-23.5 13.5v57q0 76 -40 92.5t-171 16.5h-102q-43 0 -54.5 -8.5t-25.5 -51.5l-84 -276q-31 -102 -38 -140t3 -86q12 -23 58.5 -33t169.5 -10q182 0 263 35t173 178 q33 20 47 -12q-16 -55 -60.5 -144t-80.5 -126q-35 2 -112 3t-116 1q-41 0 -122 1t-119 1h-125q-41 0 -111 -5t-92 -5q-66 -4 -193 -4q-301 0 -463.5 157.5t-148.5 427.5zM395 553q-14 -242 114 -373t343 -131q59 0 95 7t78 46t65 113l296 940q20 63 14.5 86t-40.5 33 q-90 25 -203 24q-182 0 -329.5 -69.5t-236.5 -182t-138.5 -238.5t-57.5 -255z" />
<glyph unicode="&#x153;" horiz-adv-x="1183" d="M96 223.5q0 114.5 57.5 248.5t157.5 230q135 133 279 134q78 0 125 -49.5t59 -135.5q72 78 166 131.5t180 53.5q55 0 90 -39t35 -84q0 -111 -131 -193t-375 -147q-37 -74 -37 -176q0 -55 32 -89t83 -34t94 25.5t121 93.5q14 0 22.5 -10.5t4.5 -24.5q-152 -186 -328 -187 q-125 0 -153 154q-143 -154 -279 -154q-92 0 -147.5 69t-55.5 183.5zM236 164q-2 -57 19 -94t64 -37q82 0 158 106q63 88 120.5 250t61.5 250q4 135 -81 135q-76 0 -146 -98q-80 -113 -136 -267.5t-60 -244.5zM760 432q104 31 163.5 64.5t118.5 89.5q41 39 60.5 79t19.5 60 q0 47 -45 47q-57 0 -153 -98q-98 -103 -164 -242z" />
<glyph unicode="&#x178;" horiz-adv-x="1155" d="M252 19.5q0 17.5 10 25.5l74 6q72 6 101.5 46t82.5 198l41 121q29 82 32 124t-18 138l-102 444q-23 100 -43 134t-74 42l-51 9q-8 10 -6 27.5t12 23.5q115 -6 217 -6q121 0 220 6q10 -8 10 -24.5t-10 -26.5l-60 -9q-57 -8 -73.5 -30.5t-2.5 -81.5l105 -481 q8 -39 19.5 -39t41.5 36l252 304q197 242 197 258q0 25 -60 34l-51 9q-10 8 -9 25.5t13 25.5q121 -6 213 -6q84 0 185 6q10 -6 10 -24.5t-10 -26.5l-43 -9q-82 -16 -115 -47q-84 -76 -201 -211l-233 -274q-109 -127 -141.5 -179t-69.5 -169l-39 -123q-35 -111 -42 -156 t9 -64.5t72 -23.5l73 -6q10 -8 7.5 -27.5t-13.5 -23.5q-172 6 -274 6q-106 0 -244 -6q-12 8 -12 25.5zM705 1520q0 47 28.5 77.5t67.5 30.5q35 0 55.5 -23.5t20.5 -54.5q0 -49 -30 -77.5t-69 -28.5q-35 0 -54 20.5t-19 55.5zM1061 1520q0 47 28.5 77.5t67.5 30.5 q35 0 55.5 -23.5t20.5 -54.5q0 -49 -28.5 -77.5t-69.5 -28.5q-35 0 -54.5 20.5t-19.5 55.5z" />
<glyph unicode="&#x2c6;" horiz-adv-x="737" d="M471 965l250 335q25 31 43 31q25 0 35 -39l78 -331q-12 -27 -43 -21l-86 188q-12 27 -19 27q-10 0 -33 -22l-190 -197q-12 -2 -23.5 6.5t-11.5 22.5z" />
<glyph unicode="&#x2dc;" horiz-adv-x="737" d="M391 999q6 31 27.5 82.5t42.5 69.5q37 43 102 43h103q59 0 84.5 12.5t58.5 59.5q23 12 33 -9q-23 -88 -72 -137q-33 -31 -92 -30h-100q-59 0 -93 -23t-63 -76q-21 -12 -31 8z" />
<glyph unicode="&#x2000;" horiz-adv-x="888" />
<glyph unicode="&#x2001;" horiz-adv-x="1777" />
<glyph unicode="&#x2002;" horiz-adv-x="888" />
<glyph unicode="&#x2003;" horiz-adv-x="1777" />
<glyph unicode="&#x2004;" horiz-adv-x="591" />
<glyph unicode="&#x2005;" horiz-adv-x="444" />
<glyph unicode="&#x2006;" horiz-adv-x="294" />
<glyph unicode="&#x2007;" horiz-adv-x="294" />
<glyph unicode="&#x2008;" horiz-adv-x="221" />
<glyph unicode="&#x2009;" horiz-adv-x="354" />
<glyph unicode="&#x200a;" horiz-adv-x="98" />
<glyph unicode="&#x2010;" horiz-adv-x="655" d="M111.5 414q5.5 39 25.5 57l498 45q16 -20 10 -59t-27 -58l-497 -45q-15 21 -9.5 60z" />
<glyph unicode="&#x2011;" horiz-adv-x="655" d="M111.5 414q5.5 39 25.5 57l498 45q16 -20 10 -59t-27 -58l-497 -45q-15 21 -9.5 60z" />
<glyph unicode="&#x2012;" horiz-adv-x="655" d="M111.5 414q5.5 39 25.5 57l498 45q16 -20 10 -59t-27 -58l-497 -45q-15 21 -9.5 60z" />
<glyph unicode="&#x2013;" d="M0 371l33 100h1057l-33 -100h-1057z" />
<glyph unicode="&#x2014;" horiz-adv-x="2048" d="M0 371l33 100h2081l-33 -100h-2081z" />
<glyph unicode="&#x2018;" horiz-adv-x="425" d="M332 1139q0 98 93 175t208 109q25 -12 12 -39q-182 -86 -182 -206q0 -55 65 -78q31 -12 31 -43t-25.5 -53.5t-60.5 -22.5q-66 0 -103.5 48.5t-37.5 109.5z" />
<glyph unicode="&#x2019;" horiz-adv-x="425" d="M346 1001q182 86 182 207q0 55 -65 78q-31 12 -31 43t25.5 53.5t60.5 22.5q66 0 103.5 -48t37.5 -110q0 -98 -93 -175t-208 -109q-24 11 -12 38z" />
<glyph unicode="&#x201a;" horiz-adv-x="425" d="M-31 -170q182 86 183 207q0 55 -66 78q-31 12 -31 42.5t25.5 53t60.5 22.5q66 0 104 -48t38 -109q0 -98 -93.5 -175t-207.5 -110q-25 12 -13 39z" />
<glyph unicode="&#x201c;" horiz-adv-x="778" d="M344 1139q0 98 93 175t208 109q25 -12 12 -39q-182 -86 -182 -206q0 -55 66 -78q31 -12 30.5 -43t-26 -53.5t-60.5 -22.5q-66 0 -103.5 48.5t-37.5 109.5zM676 1139q0 98 93 175t208 109q25 -12 12 -39q-182 -86 -182 -206q0 -55 65 -78q31 -12 31 -43t-25.5 -53.5 t-60.5 -22.5q-66 0 -103.5 48.5t-37.5 109.5z" />
<glyph unicode="&#x201d;" horiz-adv-x="778" d="M354 1001q182 86 183 207q0 55 -66 78q-31 12 -31 43t26 53.5t60 22.5q66 0 104 -48t38 -110q0 -98 -93.5 -175t-207.5 -109q-25 11 -13 38zM686 1001q182 86 182 207q0 55 -65 78q-31 12 -31 43t25.5 53.5t60.5 22.5q66 0 103.5 -48t37.5 -110q0 -98 -93 -175t-208 -109 q-24 11 -12 38z" />
<glyph unicode="&#x201e;" horiz-adv-x="778" d="M-25 -170q182 86 183 207q0 55 -66 78q-31 12 -31 42.5t26 53t60 22.5q66 0 104 -48t38 -109q0 -98 -93.5 -175t-207.5 -110q-25 12 -13 39zM307 -170q182 86 182 207q0 55 -65 78q-31 12 -31 42.5t25.5 53t60.5 22.5q66 0 104 -48t38 -109q0 -98 -93.5 -175t-208.5 -110 q-24 12 -12 39z" />
<glyph unicode="&#x2022;" horiz-adv-x="798" d="M225 688q0 119 83 202t202 83t202 -83t83 -202t-83 -200.5t-202 -81.5t-202 81.5t-83 200.5z" />
<glyph unicode="&#x2026;" horiz-adv-x="2048" d="M170 68q0 53 36 90t81 37q43 0 66.5 -28t23.5 -65q0 -59 -35 -95t-82 -36q-43 0 -66.5 26t-23.5 71zM852 68q0 53 36 90t81 37q43 0 66.5 -28t23.5 -65q0 -59 -35 -95t-82 -36q-43 0 -66.5 26t-23.5 71zM1534 68q0 53 36 90t81 37q43 0 66.5 -28t23.5 -65q0 -59 -35 -95 t-82 -36q-43 0 -66.5 26t-23.5 71z" />
<glyph unicode="&#x202f;" horiz-adv-x="354" />
<glyph unicode="&#x2039;" horiz-adv-x="532" d="M162 389q-20 31 12 64q53 53 157.5 155.5t153.5 151.5q25 4 29 -27l-205 -287q-18 -23 -10 -49l82 -297q-4 -12 -16.5 -18t-22.5 -2q-106 192 -180 309z" />
<glyph unicode="&#x203a;" horiz-adv-x="532" d="M104 106l205 287q18 23 10 49l-81 297q4 12 16 18.5t22 2.5q106 -193 181 -309q20 -31 -13 -64q-53 -53 -157.5 -155.5t-153.5 -151.5q-25 -5 -29 26z" />
<glyph unicode="&#x205f;" horiz-adv-x="444" />
<glyph unicode="&#x20ac;" d="M154.5 568.5q7.5 23.5 23.5 31.5h84q4 29 23 115h-95q-8 16 -0.5 39.5t23.5 31.5h92q51 150 170 285q215 240 488 240q133 0 237 -62q-49 -135 -74 -260q-4 -10 -25.5 -9t-25.5 11q41 252 -137 252q-193 0 -334 -196q-86 -117 -125 -261h506q8 -8 1 -35.5t-23 -35.5h-500 q-16 -66 -21 -115h471q6 -10 -1 -36.5t-23 -35.5h-457q-10 -72 -10 -129q0 -170 55 -265t166 -95q78 0 142.5 60.5t136.5 185.5q10 6 25.5 2t19.5 -17q-43 -147 -88 -247q-18 -2 -65.5 -15.5t-55.5 -15.5q-78 -20 -119 -21q-182 0 -288.5 121t-106.5 344q0 39 8 92h-96 q-9 17 -1.5 40.5z" />
<glyph unicode="&#x2122;" horiz-adv-x="1126" d="M307 1251q10 66 25 123h18q12 -16 21.5 -19t36.5 -3h235q35 0 57 22h17q-14 -57 -10 -129q-2 -4 -10.5 -5t-10.5 3q-4 27 -9 38t-21.5 20.5t-45.5 9.5h-43q-10 0 -12 -3t-2 -20v-207q0 -45 5 -60t28 -22l30 -4q4 -4 3 -14t-5 -12q-41 2 -98 2q-74 0 -106 -2q-14 6 -2 26 l28 4q35 4 35 88v201v12q0 4 -2 7.5t-6 3.5h-12h-35q-72 0 -88 -66q-17 -6 -21 6zM751 980q-1 9 3 15l10 2q43 4 47 43q16 160 16 244q0 35 -45 41l-14 2q-2 4 -2 14.5t4 12.5q20 -2 64 -2q55 0 86 2q0 -20 45 -105l51 -96q33 -57 35 -57q4 4 34 57l50 88q31 55 47 113 q31 -2 61 -2q51 0 74 2q8 -2 9 -13.5t-7 -13.5l-19 -2q-35 -4 -34 -45q0 -129 6 -223q2 -31 6 -41t18 -15l29 -6q4 -4 4 -14t-4 -12q-27 2 -94 2q-57 0 -84 -2q-4 4 -5 13t5 13l18 6q23 8 27 16.5t4 41.5l-4 182q0 18 -2 21q-2 0 -35 -62l-51 -100l-17 -33 q-14 -29 -27 -57.5t-18 -40.5q-18 -6 -22 -2q-16 41 -53 116l-52 103q-39 84 -43 86q-4 -6 -6 -96q-2 -35 -2 -125q0 -31 7.5 -40.5t31.5 -13.5l17 -2q8 -12 0 -26q-18 2 -89 2q-45 0 -75 -2q-4 2 -5 11z" />
<glyph unicode="&#xe000;" horiz-adv-x="835" d="M0 835h835v-835h-835v835z" />
<glyph unicode="&#xfb01;" horiz-adv-x="1030" d="M-297 -446q0 45 39 73q31 27 59 -18q47 -76 123 -76t129 170q55 180 139 526t132 502h-170q-14 16 -10.5 40t24.5 36h176q104 348 240 491q158 166 340 166q98 0 160.5 -45t62.5 -116q0 -43 -31 -66t-65 -23q-59 0 -60 52q0 137 -104.5 137t-192.5 -117 q-43 -59 -84 -150.5t-61.5 -150.5t-56.5 -178h194q61 0 172 14q82 14 100 15q59 0 17 -109l-234 -584q-18 -45 7 -45q27 0 94 47.5t119 104.5q31 -4 30 -35q-31 -57 -160 -150.5t-223 -93.5q-18 0 -33 19q-18 23 -6 55l242 623q16 37 5 50t-64 13h-281q-6 -20 -23.5 -79.5 t-23.5 -82.5q-20 -68 -86 -309.5t-107 -370.5q-78 -260 -161 -335q-104 -104 -234 -105q-63 0 -98 36t-35 69z" />
<glyph unicode="&#xfb02;" horiz-adv-x="1001" d="M-297 -446q0 45 39 73q31 27 59 -18q47 -76 123 -76t129 170q55 180 139 526t132 502h-168q-14 14 -10 38t24 38h174q98 338 236 496q145 162 321 161q96 0 166 -65q78 51 121 65l14 -12q-35 -92 -125 -352l-327 -967q-23 -68 10 -67q53 0 235 206q33 4 33 -28 q-53 -102 -146.5 -187.5t-207.5 -85.5q-78 0 -78 62q0 39 45 174l178 524h-348q-6 -20 -23.5 -79.5t-23.5 -82.5q-20 -68 -86 -309.5t-107 -370.5q-78 -260 -161 -335q-104 -104 -234 -105q-63 0 -98 36t-35 69zM492 807h352l145 424q25 72 -10 122t-102 50 q-100 0 -181 -107q-102 -139 -204 -489z" />
<glyph unicode="&#xfb03;" horiz-adv-x="1527" d="M-297 -446q0 41 39 73q31 27 59 -18q47 -76 123 -76t129 170q55 180 139 526t132 502h-168q-16 14 -13.5 38t23.5 38h180q88 303 205 440q139 168 326 168q82 0 134 -34.5t46 -98.5l4 -4q164 186 366 186q98 0 161 -45t63 -116q0 -43 -31 -66t-66 -23q-59 0 -59 52 q0 137 -104 137q-102 0 -197 -117q-92 -117 -205 -479h195q78 0 172 14.5t100 14.5q59 0 17 -109l-234 -584q-18 -45 6 -45q27 0 94.5 47.5t118.5 104.5q31 -4 31 -35q-31 -57 -160 -150.5t-223 -93.5q-16 0 -33 19q-18 23 -6 55l242 623q16 37 5 50t-65 13h-280 q-18 -68 -97 -346.5t-127 -429.5q-84 -272 -163 -352q-104 -104 -234 -105q-63 0 -98 36t-35 69q0 41 39 73q31 27 59 -18q47 -76 123 -76q80 0 131 187q47 166 130 496.5t124 465.5h-350q-6 -20 -23.5 -79.5t-23.5 -82.5q-20 -68 -86 -309.5t-107 -370.5 q-78 -260 -161 -335q-104 -104 -234 -105q-63 0 -98 36t-35 69zM489 807h353q70 231 157 389q-6 70 -50 114t-99 44q-119 0 -205 -148q-80 -137 -156 -399z" />
<glyph unicode="&#xfb04;" horiz-adv-x="1499" d="M-297 -446q0 41 39 73q31 27 59 -18q47 -76 123 -76t129 170q55 180 139 526t132 502h-168q-16 14 -13.5 38t23.5 38h180q88 303 205 440q139 168 326 168q82 0 134 -34.5t46 -98.5l4 -4q156 186 338 186q96 0 166 -65q78 51 121 65l14 -12q-35 -92 -125 -352l-328 -967 q-23 -68 10 -67q53 0 236 206q33 4 33 -28q-53 -102 -146.5 -187.5t-208.5 -85.5q-78 0 -77 62q0 39 45 174l178 524h-348q-18 -68 -97 -346.5t-127 -429.5q-84 -272 -163 -352q-104 -104 -234 -105q-63 0 -98 36t-35 69q0 41 39 73q31 27 59 -18q47 -76 123 -76 q80 0 131 187q47 166 130 496.5t124 465.5h-350q-6 -20 -23.5 -79.5t-23.5 -82.5q-20 -68 -86 -309.5t-107 -370.5q-78 -260 -161 -335q-104 -104 -234 -105q-63 0 -98 36t-35 69zM489 807h353q70 231 157 389q-6 70 -50 114t-99 44q-119 0 -205 -148q-80 -137 -156 -399z M989 807h352l146 424q25 72 -10 122t-103 50q-98 0 -182 -105q-99 -122 -203 -491z" />
</font>
</defs>
</svg>
